<?xml version="1.0" encoding="UTF-8" standalone="no"?>
<!DOCTYPE svg PUBLIC "-//W3C//DTD SVG 1.1//EN"
 "http://www.w3.org/Graphics/SVG/1.1/DTD/svg11.dtd">
<!-- Generated by graphviz version 2.50.0 (20211204.2007)
 -->
<!-- Title: G Pages: 1 -->
<svg width="676pt" height="398pt"
 viewBox="0.00 0.00 676.00 397.50" xmlns="http://www.w3.org/2000/svg" xmlns:xlink="http://www.w3.org/1999/xlink">
<g id="graph0" class="graph" transform="scale(1 1) rotate(0) translate(4 393.5)">
<title>G</title>
<polygon fill="white" stroke="transparent" points="-4,4 -4,-393.5 672,-393.5 672,4 -4,4"/>
<g id="clust2" class="cluster">
<title>cluster_3da300e9</title>
<polygon fill="none" stroke="black" stroke-dasharray="1,5" points="64.5,-115.5 64.5,-381.5 660,-381.5 660,-115.5 64.5,-115.5"/>
<text text-anchor="middle" x="362.25" y="-366.3" font-family="Times,serif" font-size="14.00">File: db</text>
</g>
<g id="clust3" class="cluster">
<title>cluster_dfa46037</title>
<polygon fill="none" stroke="black" stroke-dasharray="1,5" points="330.5,-123.5 330.5,-198.5 438.5,-198.5 438.5,-123.5 330.5,-123.5"/>
<text text-anchor="middle" x="384.5" y="-183.3" font-family="Times,serif" font-size="14.00">Class: Config</text>
</g>
<!-- Legend -->
<g id="node1" class="node">
<title>Legend</title>
<polygon fill="none" stroke="black" points="1.5,-88.5 1.5,-105.5 266.5,-105.5 266.5,-88.5 1.5,-88.5"/>
<text text-anchor="start" x="82" y="-93.3" font-family="Times,serif" font-size="14.00">Code2flow Legend</text>
<polygon fill="none" stroke="black" points="1.5,-0.5 1.5,-88.5 266.5,-88.5 266.5,-0.5 1.5,-0.5"/>
<polygon fill="none" stroke="black" points="3.5,-65.5 3.5,-86.5 214.5,-86.5 214.5,-65.5 3.5,-65.5"/>
<text text-anchor="start" x="63" y="-72.3" font-family="Times,serif" font-size="14.00">Regular function</text>
<polygon fill="#cccccc" stroke="transparent" points="214.5,-65.5 214.5,-86.5 264.5,-86.5 264.5,-65.5 214.5,-65.5"/>
<polygon fill="none" stroke="black" points="214.5,-65.5 214.5,-86.5 264.5,-86.5 264.5,-65.5 214.5,-65.5"/>
<polygon fill="none" stroke="black" points="3.5,-44.5 3.5,-65.5 214.5,-65.5 214.5,-44.5 3.5,-44.5"/>
<text text-anchor="start" x="15" y="-51.3" font-family="Times,serif" font-size="14.00">Trunk function (nothing calls this)</text>
<polygon fill="#966f33" stroke="transparent" points="214.5,-44.5 214.5,-65.5 264.5,-65.5 264.5,-44.5 214.5,-44.5"/>
<polygon fill="none" stroke="black" points="214.5,-44.5 214.5,-65.5 264.5,-65.5 264.5,-44.5 214.5,-44.5"/>
<polygon fill="none" stroke="black" points="3.5,-23.5 3.5,-44.5 214.5,-44.5 214.5,-23.5 3.5,-23.5"/>
<text text-anchor="start" x="6.5" y="-30.3" font-family="Times,serif" font-size="14.00">Leaf function (this calls nothing else)</text>
<polygon fill="#6db33f" stroke="transparent" points="214.5,-23.5 214.5,-44.5 264.5,-44.5 264.5,-23.5 214.5,-23.5"/>
<polygon fill="none" stroke="black" points="214.5,-23.5 214.5,-44.5 264.5,-44.5 264.5,-23.5 214.5,-23.5"/>
<polygon fill="none" stroke="black" points="3.5,-2.5 3.5,-23.5 214.5,-23.5 214.5,-2.5 3.5,-2.5"/>
<text text-anchor="start" x="73" y="-9.3" font-family="Times,serif" font-size="14.00">Function call</text>
<polygon fill="none" stroke="black" points="214.5,-2.5 214.5,-23.5 264.5,-23.5 264.5,-2.5 214.5,-2.5"/>
<text text-anchor="start" x="232.5" y="-9.3" font-family="Times,serif" font-size="14.00" fill="#cf142b">→</text>
<polygon fill="none" stroke="black" points="2.5,-1.5 2.5,-87.5 265.5,-87.5 265.5,-1.5 2.5,-1.5"/>
<polygon fill="none" stroke="black" points="0,0 0,-107 267,-107 267,0 0,0"/>
</g>
<!-- node_61e64d6e -->
<g id="node2" class="node">
<title>node_61e64d6e</title>
<path fill="#cccccc" stroke="black" d="M431.5,-350.5C431.5,-350.5 337.5,-350.5 337.5,-350.5 331.5,-350.5 325.5,-344.5 325.5,-338.5 325.5,-338.5 325.5,-326.5 325.5,-326.5 325.5,-320.5 331.5,-314.5 337.5,-314.5 337.5,-314.5 431.5,-314.5 431.5,-314.5 437.5,-314.5 443.5,-320.5 443.5,-326.5 443.5,-326.5 443.5,-338.5 443.5,-338.5 443.5,-344.5 437.5,-350.5 431.5,-350.5"/>
<text text-anchor="middle" x="384.5" y="-328.8" font-family="Times,serif" font-size="14.00">117: all_samples()</text>
</g>
<!-- node_99e3d7d9 -->
<g id="node8" class="node">
<title>node_99e3d7d9</title>
<path fill="#6db33f" stroke="black" d="M620,-296.5C620,-296.5 534,-296.5 534,-296.5 528,-296.5 522,-290.5 522,-284.5 522,-284.5 522,-272.5 522,-272.5 522,-266.5 528,-260.5 534,-260.5 534,-260.5 620,-260.5 620,-260.5 626,-260.5 632,-266.5 632,-272.5 632,-272.5 632,-284.5 632,-284.5 632,-290.5 626,-296.5 620,-296.5"/>
<text text-anchor="middle" x="577" y="-274.8" font-family="Times,serif" font-size="14.00">61: get_batches()</text>
</g>
<!-- node_61e64d6e&#45;&gt;node_99e3d7d9 -->
<g id="edge4" class="edge">
<title>node_61e64d6e&#45;&gt;node_99e3d7d9</title>
<path fill="none" stroke="#cf142b" stroke-width="2" d="M443.53,-326.5C464.96,-326.5 484,-326.5 484,-326.5 484,-326.5 484,-287.5 484,-287.5 484,-287.5 511.83,-287.5 511.83,-287.5"/>
<polygon fill="#cf142b" stroke="#cf142b" stroke-width="2" points="511.83,-291 521.83,-287.5 511.83,-284 511.83,-291"/>
</g>
<!-- node_df118028 -->
<g id="node9" class="node">
<title>node_df118028</title>
<path fill="#6db33f" stroke="black" d="M625.5,-350.5C625.5,-350.5 528.5,-350.5 528.5,-350.5 522.5,-350.5 516.5,-344.5 516.5,-338.5 516.5,-338.5 516.5,-326.5 516.5,-326.5 516.5,-320.5 522.5,-314.5 528.5,-314.5 528.5,-314.5 625.5,-314.5 625.5,-314.5 631.5,-314.5 637.5,-320.5 637.5,-326.5 637.5,-326.5 637.5,-338.5 637.5,-338.5 637.5,-344.5 631.5,-350.5 625.5,-350.5"/>
<text text-anchor="middle" x="577" y="-328.8" font-family="Times,serif" font-size="14.00">186: get_samples()</text>
</g>
<!-- node_61e64d6e&#45;&gt;node_df118028 -->
<g id="edge5" class="edge">
<title>node_61e64d6e&#45;&gt;node_df118028</title>
<path fill="none" stroke="#cf142b" stroke-width="2" d="M443.56,-338.5C443.56,-338.5 506.38,-338.5 506.38,-338.5"/>
<polygon fill="#cf142b" stroke="#cf142b" stroke-width="2" points="506.38,-342 516.38,-338.5 506.38,-335 506.38,-342"/>
</g>
<!-- node_dbe60978 -->
<g id="node3" class="node">
<title>node_dbe60978</title>
<path fill="#6db33f" stroke="black" d="M640,-242.5C640,-242.5 514,-242.5 514,-242.5 508,-242.5 502,-236.5 502,-230.5 502,-230.5 502,-218.5 502,-218.5 502,-212.5 508,-206.5 514,-206.5 514,-206.5 640,-206.5 640,-206.5 646,-206.5 652,-212.5 652,-218.5 652,-218.5 652,-230.5 652,-230.5 652,-236.5 646,-242.5 640,-242.5"/>
<text text-anchor="middle" x="577" y="-220.8" font-family="Times,serif" font-size="14.00">72: get_batch_samples()</text>
</g>
<!-- node_9ddb3cd0 -->
<g id="node4" class="node">
<title>node_9ddb3cd0</title>
<path fill="#6db33f" stroke="black" d="M418.5,-167.5C418.5,-167.5 350.5,-167.5 350.5,-167.5 344.5,-167.5 338.5,-161.5 338.5,-155.5 338.5,-155.5 338.5,-143.5 338.5,-143.5 338.5,-137.5 344.5,-131.5 350.5,-131.5 350.5,-131.5 418.5,-131.5 418.5,-131.5 424.5,-131.5 430.5,-137.5 430.5,-143.5 430.5,-143.5 430.5,-155.5 430.5,-155.5 430.5,-161.5 424.5,-167.5 418.5,-167.5"/>
<text text-anchor="middle" x="384.5" y="-145.8" font-family="Times,serif" font-size="14.00">15: __init__()</text>
</g>
<!-- node_e909580c -->
<g id="node5" class="node">
<title>node_e909580c</title>
<path fill="#966f33" stroke="black" d="M182.5,-296.5C182.5,-296.5 84.5,-296.5 84.5,-296.5 78.5,-296.5 72.5,-290.5 72.5,-284.5 72.5,-284.5 72.5,-272.5 72.5,-272.5 72.5,-266.5 78.5,-260.5 84.5,-260.5 84.5,-260.5 182.5,-260.5 182.5,-260.5 188.5,-260.5 194.5,-266.5 194.5,-272.5 194.5,-272.5 194.5,-284.5 194.5,-284.5 194.5,-290.5 188.5,-296.5 182.5,-296.5"/>
<text text-anchor="middle" x="133.5" y="-274.8" font-family="Times,serif" font-size="14.00">109: run_samples()</text>
</g>
<!-- node_e909580c&#45;&gt;node_61e64d6e -->
<g id="edge2" class="edge">
<title>node_e909580c&#45;&gt;node_61e64d6e</title>
<path fill="none" stroke="#cf142b" stroke-width="2" d="M134,-296.78C134,-312.45 134,-332.5 134,-332.5 134,-332.5 315.45,-332.5 315.45,-332.5"/>
<polygon fill="#cf142b" stroke="#cf142b" stroke-width="2" points="315.45,-336 325.45,-332.5 315.45,-329 315.45,-336"/>
</g>
<!-- node_1f733591 -->
<g id="node11" class="node">
<title>node_1f733591</title>
<path fill="#cccccc" stroke="black" d="M431.5,-242.5C431.5,-242.5 337.5,-242.5 337.5,-242.5 331.5,-242.5 325.5,-236.5 325.5,-230.5 325.5,-230.5 325.5,-218.5 325.5,-218.5 325.5,-212.5 331.5,-206.5 337.5,-206.5 337.5,-206.5 431.5,-206.5 431.5,-206.5 437.5,-206.5 443.5,-212.5 443.5,-218.5 443.5,-218.5 443.5,-230.5 443.5,-230.5 443.5,-236.5 437.5,-242.5 431.5,-242.5"/>
<text text-anchor="middle" x="384.5" y="-220.8" font-family="Times,serif" font-size="14.00">98: filter_sample()</text>
</g>
<!-- node_e909580c&#45;&gt;node_1f733591 -->
<g id="edge3" class="edge">
<title>node_e909580c&#45;&gt;node_1f733591</title>
<path fill="none" stroke="#cf142b" stroke-width="2" d="M185,-260.22C185,-244.55 185,-224.5 185,-224.5 185,-224.5 315.45,-224.5 315.45,-224.5"/>
<polygon fill="#cf142b" stroke="#cf142b" stroke-width="2" points="315.45,-228 325.45,-224.5 315.45,-221 315.45,-228"/>
</g>
<!-- node_f87ca5f0 -->
<g id="node6" class="node">
<title>node_f87ca5f0</title>
<path fill="#966f33" stroke="black" d="M454,-296.5C454,-296.5 315,-296.5 315,-296.5 309,-296.5 303,-290.5 303,-284.5 303,-284.5 303,-272.5 303,-272.5 303,-266.5 309,-260.5 315,-260.5 315,-260.5 454,-260.5 454,-260.5 460,-260.5 466,-266.5 466,-272.5 466,-272.5 466,-284.5 466,-284.5 466,-290.5 460,-296.5 454,-296.5"/>
<text text-anchor="middle" x="384.5" y="-274.8" font-family="Times,serif" font-size="14.00">138: get_batch_by_name()</text>
</g>
<!-- node_f87ca5f0&#45;&gt;node_dbe60978 -->
<g id="edge7" class="edge">
<title>node_f87ca5f0&#45;&gt;node_dbe60978</title>
<path fill="none" stroke="#cf142b" stroke-width="2" d="M466.11,-269.5C490.08,-269.5 510,-269.5 510,-269.5 510,-269.5 510,-252.54 510,-252.54"/>
<polygon fill="#cf142b" stroke="#cf142b" stroke-width="2" points="513.5,-252.54 510,-242.54 506.5,-252.54 513.5,-252.54"/>
</g>
<!-- node_91aa5d6b -->
<g id="node7" class="node">
<title>node_91aa5d6b</title>
<path fill="#6db33f" stroke="black" d="M619.5,-188.5C619.5,-188.5 534.5,-188.5 534.5,-188.5 528.5,-188.5 522.5,-182.5 522.5,-176.5 522.5,-176.5 522.5,-164.5 522.5,-164.5 522.5,-158.5 528.5,-152.5 534.5,-152.5 534.5,-152.5 619.5,-152.5 619.5,-152.5 625.5,-152.5 631.5,-158.5 631.5,-164.5 631.5,-164.5 631.5,-176.5 631.5,-176.5 631.5,-182.5 625.5,-188.5 619.5,-188.5"/>
<text text-anchor="middle" x="577" y="-166.8" font-family="Times,serif" font-size="14.00">83: get_sample()</text>
</g>
<!-- node_f87ca5f0&#45;&gt;node_91aa5d6b -->
<g id="edge8" class="edge">
<title>node_f87ca5f0&#45;&gt;node_91aa5d6b</title>
<path fill="none" stroke="#cf142b" stroke-width="2" d="M455,-260.26C455,-232.16 455,-181.5 455,-181.5 455,-181.5 512.42,-181.5 512.42,-181.5"/>
<polygon fill="#cf142b" stroke="#cf142b" stroke-width="2" points="512.42,-185 522.42,-181.5 512.42,-178 512.42,-185"/>
</g>
<!-- node_f87ca5f0&#45;&gt;node_99e3d7d9 -->
<g id="edge6" class="edge">
<title>node_f87ca5f0&#45;&gt;node_99e3d7d9</title>
<path fill="none" stroke="#cf142b" stroke-width="2" d="M466.14,-278.5C466.14,-278.5 511.73,-278.5 511.73,-278.5"/>
<polygon fill="#cf142b" stroke="#cf142b" stroke-width="2" points="511.73,-282 521.73,-278.5 511.73,-275 511.73,-282"/>
</g>
<!-- node_72196767 -->
<g id="node10" class="node">
<title>node_72196767</title>
<path fill="#966f33" stroke="black" d="M163,-167.5C163,-167.5 104,-167.5 104,-167.5 98,-167.5 92,-161.5 92,-155.5 92,-155.5 92,-143.5 92,-143.5 92,-137.5 98,-131.5 104,-131.5 104,-131.5 163,-131.5 163,-131.5 169,-131.5 175,-137.5 175,-143.5 175,-143.5 175,-155.5 175,-155.5 175,-161.5 169,-167.5 163,-167.5"/>
<text text-anchor="middle" x="133.5" y="-145.8" font-family="Times,serif" font-size="14.00">0: (global)()</text>
</g>
<!-- node_72196767&#45;&gt;node_9ddb3cd0 -->
<g id="edge9" class="edge">
<title>node_72196767&#45;&gt;node_9ddb3cd0</title>
<path fill="none" stroke="#cf142b" stroke-width="2" d="M175.23,-149.5C175.23,-149.5 328.41,-149.5 328.41,-149.5"/>
<polygon fill="#cf142b" stroke="#cf142b" stroke-width="2" points="328.41,-153 338.41,-149.5 328.41,-146 328.41,-153"/>
</g>
<!-- node_1f733591&#45;&gt;node_91aa5d6b -->
<g id="edge1" class="edge">
<title>node_1f733591&#45;&gt;node_91aa5d6b</title>
<path fill="none" stroke="#cf142b" stroke-width="2" d="M437,-206.45C437,-192.13 437,-174.5 437,-174.5 437,-174.5 512.47,-174.5 512.47,-174.5"/>
<polygon fill="#cf142b" stroke="#cf142b" stroke-width="2" points="512.47,-178 522.47,-174.5 512.47,-171 512.47,-178"/>
</g>
</g>
</svg>
