<?xml version="1.0" encoding="UTF-8" standalone="no"?>
<!DOCTYPE svg PUBLIC "-//W3C//DTD SVG 1.1//EN"
 "http://www.w3.org/Graphics/SVG/1.1/DTD/svg11.dtd">
<!-- Generated by graphviz version 2.50.0 (20211204.2007)
 -->
<!-- Title: G Pages: 1 -->
<svg width="626pt" height="209pt"
 viewBox="0.00 0.00 626.00 208.50" xmlns="http://www.w3.org/2000/svg" xmlns:xlink="http://www.w3.org/1999/xlink">
<g id="graph0" class="graph" transform="scale(1 1) rotate(0) translate(4 204.5)">
<title>G</title>
<polygon fill="white" stroke="transparent" points="-4,4 -4,-204.5 622,-204.5 622,4 -4,4"/>
<g id="clust2" class="cluster">
<title>cluster_e7af326d</title>
<polygon fill="none" stroke="black" stroke-dasharray="1,5" points="88.5,-117.5 88.5,-192.5 610,-192.5 610,-117.5 88.5,-117.5"/>
<text text-anchor="middle" x="349.25" y="-177.3" font-family="Times,serif" font-size="14.00">File: reports2csv</text>
</g>
<!-- Legend -->
<g id="node1" class="node">
<title>Legend</title>
<polygon fill="none" stroke="black" points="1.5,-88.5 1.5,-105.5 266.5,-105.5 266.5,-88.5 1.5,-88.5"/>
<text text-anchor="start" x="82" y="-93.3" font-family="Times,serif" font-size="14.00">Code2flow Legend</text>
<polygon fill="none" stroke="black" points="1.5,-0.5 1.5,-88.5 266.5,-88.5 266.5,-0.5 1.5,-0.5"/>
<polygon fill="none" stroke="black" points="3.5,-65.5 3.5,-86.5 214.5,-86.5 214.5,-65.5 3.5,-65.5"/>
<text text-anchor="start" x="63" y="-72.3" font-family="Times,serif" font-size="14.00">Regular function</text>
<polygon fill="#cccccc" stroke="transparent" points="214.5,-65.5 214.5,-86.5 264.5,-86.5 264.5,-65.5 214.5,-65.5"/>
<polygon fill="none" stroke="black" points="214.5,-65.5 214.5,-86.5 264.5,-86.5 264.5,-65.5 214.5,-65.5"/>
<polygon fill="none" stroke="black" points="3.5,-44.5 3.5,-65.5 214.5,-65.5 214.5,-44.5 3.5,-44.5"/>
<text text-anchor="start" x="15" y="-51.3" font-family="Times,serif" font-size="14.00">Trunk function (nothing calls this)</text>
<polygon fill="#966f33" stroke="transparent" points="214.5,-44.5 214.5,-65.5 264.5,-65.5 264.5,-44.5 214.5,-44.5"/>
<polygon fill="none" stroke="black" points="214.5,-44.5 214.5,-65.5 264.5,-65.5 264.5,-44.5 214.5,-44.5"/>
<polygon fill="none" stroke="black" points="3.5,-23.5 3.5,-44.5 214.5,-44.5 214.5,-23.5 3.5,-23.5"/>
<text text-anchor="start" x="6.5" y="-30.3" font-family="Times,serif" font-size="14.00">Leaf function (this calls nothing else)</text>
<polygon fill="#6db33f" stroke="transparent" points="214.5,-23.5 214.5,-44.5 264.5,-44.5 264.5,-23.5 214.5,-23.5"/>
<polygon fill="none" stroke="black" points="214.5,-23.5 214.5,-44.5 264.5,-44.5 264.5,-23.5 214.5,-23.5"/>
<polygon fill="none" stroke="black" points="3.5,-2.5 3.5,-23.5 214.5,-23.5 214.5,-2.5 3.5,-2.5"/>
<text text-anchor="start" x="73" y="-9.3" font-family="Times,serif" font-size="14.00">Function call</text>
<polygon fill="none" stroke="black" points="214.5,-2.5 214.5,-23.5 264.5,-23.5 264.5,-2.5 214.5,-2.5"/>
<text text-anchor="start" x="232.5" y="-9.3" font-family="Times,serif" font-size="14.00" fill="#cf142b">→</text>
<polygon fill="none" stroke="black" points="2.5,-1.5 2.5,-87.5 265.5,-87.5 265.5,-1.5 2.5,-1.5"/>
<polygon fill="none" stroke="black" points="0,0 0,-107 267,-107 267,0 0,0"/>
</g>
<!-- node_ddb85eb5 -->
<g id="node2" class="node">
<title>node_ddb85eb5</title>
<path fill="#cccccc" stroke="black" d="M438,-161.5C438,-161.5 315,-161.5 315,-161.5 309,-161.5 303,-155.5 303,-149.5 303,-149.5 303,-137.5 303,-137.5 303,-131.5 309,-125.5 315,-125.5 315,-125.5 438,-125.5 438,-125.5 444,-125.5 450,-131.5 450,-137.5 450,-137.5 450,-149.5 450,-149.5 450,-155.5 444,-161.5 438,-161.5"/>
<text text-anchor="middle" x="376.5" y="-139.8" font-family="Times,serif" font-size="14.00">27: get_val_from_dict()</text>
</g>
<!-- node_97982925 -->
<g id="node3" class="node">
<title>node_97982925</title>
<path fill="#6db33f" stroke="black" d="M590,-161.5C590,-161.5 498,-161.5 498,-161.5 492,-161.5 486,-155.5 486,-149.5 486,-149.5 486,-137.5 486,-137.5 486,-131.5 492,-125.5 498,-125.5 498,-125.5 590,-125.5 590,-125.5 596,-125.5 602,-131.5 602,-137.5 602,-137.5 602,-149.5 602,-149.5 602,-155.5 596,-161.5 590,-161.5"/>
<text text-anchor="middle" x="544" y="-139.8" font-family="Times,serif" font-size="14.00">5: get_list_value()</text>
</g>
<!-- node_ddb85eb5&#45;&gt;node_97982925 -->
<g id="edge1" class="edge">
<title>node_ddb85eb5&#45;&gt;node_97982925</title>
<path fill="none" stroke="#cf142b" stroke-width="2" d="M450.46,-143.5C450.46,-143.5 475.78,-143.5 475.78,-143.5"/>
<polygon fill="#cf142b" stroke="#cf142b" stroke-width="2" points="475.78,-147 485.78,-143.5 475.78,-140 475.78,-147"/>
</g>
<!-- node_d1fd33cf -->
<g id="node4" class="node">
<title>node_d1fd33cf</title>
<path fill="#966f33" stroke="black" d="M158.5,-161.5C158.5,-161.5 108.5,-161.5 108.5,-161.5 102.5,-161.5 96.5,-155.5 96.5,-149.5 96.5,-149.5 96.5,-137.5 96.5,-137.5 96.5,-131.5 102.5,-125.5 108.5,-125.5 108.5,-125.5 158.5,-125.5 158.5,-125.5 164.5,-125.5 170.5,-131.5 170.5,-137.5 170.5,-137.5 170.5,-149.5 170.5,-149.5 170.5,-155.5 164.5,-161.5 158.5,-161.5"/>
<text text-anchor="middle" x="133.5" y="-139.8" font-family="Times,serif" font-size="14.00">43: main()</text>
</g>
<!-- node_d1fd33cf&#45;&gt;node_ddb85eb5 -->
<g id="edge2" class="edge">
<title>node_d1fd33cf&#45;&gt;node_ddb85eb5</title>
<path fill="none" stroke="#cf142b" stroke-width="2" d="M170.67,-143.5C170.67,-143.5 292.62,-143.5 292.62,-143.5"/>
<polygon fill="#cf142b" stroke="#cf142b" stroke-width="2" points="292.62,-147 302.62,-143.5 292.62,-140 292.62,-147"/>
</g>
</g>
</svg>
