<?xml version="1.0" encoding="UTF-8" standalone="no"?>
<!DOCTYPE svg PUBLIC "-//W3C//DTD SVG 1.1//EN"
 "http://www.w3.org/Graphics/SVG/1.1/DTD/svg11.dtd">
<!-- Generated by graphviz version 2.50.0 (20211204.2007)
 -->
<!-- Title: G Pages: 1 -->
<svg width="1381pt" height="369pt"
 viewBox="0.00 0.00 1381.00 368.50" xmlns="http://www.w3.org/2000/svg" xmlns:xlink="http://www.w3.org/1999/xlink">
<g id="graph0" class="graph" transform="scale(1 1) rotate(0) translate(4 364.5)">
<title>G</title>
<polygon fill="white" stroke="transparent" points="-4,4 -4,-364.5 1377,-364.5 1377,4 -4,4"/>
<g id="clust2" class="cluster">
<title>cluster_efe2b3ea</title>
<polygon fill="none" stroke="black" stroke-dasharray="1,5" points="82.5,-115.5 82.5,-352.5 1365,-352.5 1365,-115.5 82.5,-115.5"/>
<text text-anchor="middle" x="723.75" y="-337.3" font-family="Times,serif" font-size="14.00">File: run_watcher</text>
</g>
<!-- Legend -->
<g id="node1" class="node">
<title>Legend</title>
<polygon fill="none" stroke="black" points="1.5,-88.5 1.5,-105.5 266.5,-105.5 266.5,-88.5 1.5,-88.5"/>
<text text-anchor="start" x="82" y="-93.3" font-family="Times,serif" font-size="14.00">Code2flow Legend</text>
<polygon fill="none" stroke="black" points="1.5,-0.5 1.5,-88.5 266.5,-88.5 266.5,-0.5 1.5,-0.5"/>
<polygon fill="none" stroke="black" points="3.5,-65.5 3.5,-86.5 214.5,-86.5 214.5,-65.5 3.5,-65.5"/>
<text text-anchor="start" x="63" y="-72.3" font-family="Times,serif" font-size="14.00">Regular function</text>
<polygon fill="#cccccc" stroke="transparent" points="214.5,-65.5 214.5,-86.5 264.5,-86.5 264.5,-65.5 214.5,-65.5"/>
<polygon fill="none" stroke="black" points="214.5,-65.5 214.5,-86.5 264.5,-86.5 264.5,-65.5 214.5,-65.5"/>
<polygon fill="none" stroke="black" points="3.5,-44.5 3.5,-65.5 214.5,-65.5 214.5,-44.5 3.5,-44.5"/>
<text text-anchor="start" x="15" y="-51.3" font-family="Times,serif" font-size="14.00">Trunk function (nothing calls this)</text>
<polygon fill="#966f33" stroke="transparent" points="214.5,-44.5 214.5,-65.5 264.5,-65.5 264.5,-44.5 214.5,-44.5"/>
<polygon fill="none" stroke="black" points="214.5,-44.5 214.5,-65.5 264.5,-65.5 264.5,-44.5 214.5,-44.5"/>
<polygon fill="none" stroke="black" points="3.5,-23.5 3.5,-44.5 214.5,-44.5 214.5,-23.5 3.5,-23.5"/>
<text text-anchor="start" x="6.5" y="-30.3" font-family="Times,serif" font-size="14.00">Leaf function (this calls nothing else)</text>
<polygon fill="#6db33f" stroke="transparent" points="214.5,-23.5 214.5,-44.5 264.5,-44.5 264.5,-23.5 214.5,-23.5"/>
<polygon fill="none" stroke="black" points="214.5,-23.5 214.5,-44.5 264.5,-44.5 264.5,-23.5 214.5,-23.5"/>
<polygon fill="none" stroke="black" points="3.5,-2.5 3.5,-23.5 214.5,-23.5 214.5,-2.5 3.5,-2.5"/>
<text text-anchor="start" x="73" y="-9.3" font-family="Times,serif" font-size="14.00">Function call</text>
<polygon fill="none" stroke="black" points="214.5,-2.5 214.5,-23.5 264.5,-23.5 264.5,-2.5 214.5,-2.5"/>
<text text-anchor="start" x="232.5" y="-9.3" font-family="Times,serif" font-size="14.00" fill="#cf142b">→</text>
<polygon fill="none" stroke="black" points="2.5,-1.5 2.5,-87.5 265.5,-87.5 265.5,-1.5 2.5,-1.5"/>
<polygon fill="none" stroke="black" points="0,0 0,-107 267,-107 267,0 0,0"/>
</g>
<!-- node_42cea454 -->
<g id="node2" class="node">
<title>node_42cea454</title>
<path fill="#6db33f" stroke="black" d="M481,-159.5C481,-159.5 320,-159.5 320,-159.5 314,-159.5 308,-153.5 308,-147.5 308,-147.5 308,-135.5 308,-135.5 308,-129.5 314,-123.5 320,-123.5 320,-123.5 481,-123.5 481,-123.5 487,-123.5 493,-129.5 493,-135.5 493,-135.5 493,-147.5 493,-147.5 493,-153.5 487,-159.5 481,-159.5"/>
<text text-anchor="middle" x="400.5" y="-137.8" font-family="Times,serif" font-size="14.00">43: add_to_submitted_runlist()</text>
</g>
<!-- node_40d90496 -->
<g id="node3" class="node">
<title>node_40d90496</title>
<path fill="#cccccc" stroke="black" d="M1169,-194.5C1169,-194.5 1006,-194.5 1006,-194.5 1000,-194.5 994,-188.5 994,-182.5 994,-182.5 994,-170.5 994,-170.5 994,-164.5 1000,-158.5 1006,-158.5 1006,-158.5 1169,-158.5 1169,-158.5 1175,-158.5 1181,-164.5 1181,-170.5 1181,-170.5 1181,-182.5 1181,-182.5 1181,-188.5 1175,-194.5 1169,-194.5"/>
<text text-anchor="middle" x="1087.5" y="-172.8" font-family="Times,serif" font-size="14.00">64: get_sample_map_for_run()</text>
</g>
<!-- node_27c082c1 -->
<g id="node12" class="node">
<title>node_27c082c1</title>
<path fill="#6db33f" stroke="black" d="M1345,-194.5C1345,-194.5 1229,-194.5 1229,-194.5 1223,-194.5 1217,-188.5 1217,-182.5 1217,-182.5 1217,-170.5 1217,-170.5 1217,-164.5 1223,-158.5 1229,-158.5 1229,-158.5 1345,-158.5 1345,-158.5 1351,-158.5 1357,-164.5 1357,-170.5 1357,-170.5 1357,-182.5 1357,-182.5 1357,-188.5 1351,-194.5 1345,-194.5"/>
<text text-anchor="middle" x="1287" y="-172.8" font-family="Times,serif" font-size="14.00">59: get_data_for_run()</text>
</g>
<!-- node_40d90496&#45;&gt;node_27c082c1 -->
<g id="edge1" class="edge">
<title>node_40d90496&#45;&gt;node_27c082c1</title>
<path fill="none" stroke="#cf142b" stroke-width="2" d="M1181.12,-176.5C1181.12,-176.5 1206.91,-176.5 1206.91,-176.5"/>
<polygon fill="#cf142b" stroke="#cf142b" stroke-width="2" points="1206.91,-180 1216.91,-176.5 1206.91,-173 1206.91,-180"/>
</g>
<!-- node_027f5ad9 -->
<g id="node4" class="node">
<title>node_027f5ad9</title>
<path fill="#966f33" stroke="black" d="M164.5,-240.5C164.5,-240.5 102.5,-240.5 102.5,-240.5 96.5,-240.5 90.5,-234.5 90.5,-228.5 90.5,-228.5 90.5,-216.5 90.5,-216.5 90.5,-210.5 96.5,-204.5 102.5,-204.5 102.5,-204.5 164.5,-204.5 164.5,-204.5 170.5,-204.5 176.5,-210.5 176.5,-216.5 176.5,-216.5 176.5,-228.5 176.5,-228.5 176.5,-234.5 170.5,-240.5 164.5,-240.5"/>
<text text-anchor="middle" x="133.5" y="-218.8" font-family="Times,serif" font-size="14.00">281: watch()</text>
</g>
<!-- node_027f5ad9&#45;&gt;node_42cea454 -->
<g id="edge11" class="edge">
<title>node_027f5ad9&#45;&gt;node_42cea454</title>
<path fill="none" stroke="#cf142b" stroke-width="2" d="M134,-204.12C134,-180.22 134,-141.5 134,-141.5 134,-141.5 297.67,-141.5 297.67,-141.5"/>
<polygon fill="#cf142b" stroke="#cf142b" stroke-width="2" points="297.67,-145 307.67,-141.5 297.67,-138 297.67,-145"/>
</g>
<!-- node_47ddba55 -->
<g id="node5" class="node">
<title>node_47ddba55</title>
<path fill="#6db33f" stroke="black" d="M486,-213.5C486,-213.5 315,-213.5 315,-213.5 309,-213.5 303,-207.5 303,-201.5 303,-201.5 303,-189.5 303,-189.5 303,-183.5 309,-177.5 315,-177.5 315,-177.5 486,-177.5 486,-177.5 492,-177.5 498,-183.5 498,-189.5 498,-189.5 498,-201.5 498,-201.5 498,-207.5 492,-213.5 486,-213.5"/>
<text text-anchor="middle" x="400.5" y="-191.8" font-family="Times,serif" font-size="14.00">273: get_finished_ok_sp3_runs()</text>
</g>
<!-- node_027f5ad9&#45;&gt;node_47ddba55 -->
<g id="edge8" class="edge">
<title>node_027f5ad9&#45;&gt;node_47ddba55</title>
<path fill="none" stroke="#cf142b" stroke-width="2" d="M176.69,-209C176.69,-209 292.78,-209 292.78,-209"/>
<polygon fill="#cf142b" stroke="#cf142b" stroke-width="2" points="292.78,-212.5 302.78,-209 292.78,-205.5 292.78,-212.5"/>
</g>
<!-- node_b7e2034a -->
<g id="node9" class="node">
<title>node_b7e2034a</title>
<path fill="#6db33f" stroke="black" d="M471,-267.5C471,-267.5 330,-267.5 330,-267.5 324,-267.5 318,-261.5 318,-255.5 318,-255.5 318,-243.5 318,-243.5 318,-237.5 324,-231.5 330,-231.5 330,-231.5 471,-231.5 471,-231.5 477,-231.5 483,-237.5 483,-243.5 483,-243.5 483,-255.5 483,-255.5 483,-261.5 477,-267.5 471,-267.5"/>
<text text-anchor="middle" x="400.5" y="-245.8" font-family="Times,serif" font-size="14.00">35: get_submitted_runlist()</text>
</g>
<!-- node_027f5ad9&#45;&gt;node_b7e2034a -->
<g id="edge9" class="edge">
<title>node_027f5ad9&#45;&gt;node_b7e2034a</title>
<path fill="none" stroke="#cf142b" stroke-width="2" d="M176.69,-236C176.69,-236 307.75,-236 307.75,-236"/>
<polygon fill="#cf142b" stroke="#cf142b" stroke-width="2" points="307.75,-239.5 317.75,-236 307.75,-232.5 307.75,-239.5"/>
</g>
<!-- node_52c3749c -->
<g id="node10" class="node">
<title>node_52c3749c</title>
<path fill="#cccccc" stroke="black" d="M448,-321.5C448,-321.5 353,-321.5 353,-321.5 347,-321.5 341,-315.5 341,-309.5 341,-309.5 341,-297.5 341,-297.5 341,-291.5 347,-285.5 353,-285.5 353,-285.5 448,-285.5 448,-285.5 454,-285.5 460,-291.5 460,-297.5 460,-297.5 460,-309.5 460,-309.5 460,-315.5 454,-321.5 448,-321.5"/>
<text text-anchor="middle" x="400.5" y="-299.8" font-family="Times,serif" font-size="14.00">269: process_run()</text>
</g>
<!-- node_027f5ad9&#45;&gt;node_52c3749c -->
<g id="edge10" class="edge">
<title>node_027f5ad9&#45;&gt;node_52c3749c</title>
<path fill="none" stroke="#cf142b" stroke-width="2" d="M134,-240.88C134,-264.78 134,-303.5 134,-303.5 134,-303.5 330.69,-303.5 330.69,-303.5"/>
<polygon fill="#cf142b" stroke="#cf142b" stroke-width="2" points="330.69,-307 340.69,-303.5 330.69,-300 330.69,-307"/>
</g>
<!-- node_bd10f9bd -->
<g id="node6" class="node">
<title>node_bd10f9bd</title>
<path fill="#cccccc" stroke="black" d="M946,-213.5C946,-213.5 771,-213.5 771,-213.5 765,-213.5 759,-207.5 759,-201.5 759,-201.5 759,-189.5 759,-189.5 759,-183.5 765,-177.5 771,-177.5 771,-177.5 946,-177.5 946,-177.5 952,-177.5 958,-183.5 958,-189.5 958,-189.5 958,-201.5 958,-201.5 958,-207.5 952,-213.5 946,-213.5"/>
<text text-anchor="middle" x="858.5" y="-191.8" font-family="Times,serif" font-size="14.00">171: submit_sample_data_error()</text>
</g>
<!-- node_bd10f9bd&#45;&gt;node_40d90496 -->
<g id="edge2" class="edge">
<title>node_bd10f9bd&#45;&gt;node_40d90496</title>
<path fill="none" stroke="#cf142b" stroke-width="2" d="M958.28,-186C958.28,-186 983.84,-186 983.84,-186"/>
<polygon fill="#cf142b" stroke="#cf142b" stroke-width="2" points="983.84,-189.5 993.84,-186 983.84,-182.5 983.84,-189.5"/>
</g>
<!-- node_062102e8 -->
<g id="node7" class="node">
<title>node_062102e8</title>
<path fill="#6db33f" stroke="black" d="M922.5,-267.5C922.5,-267.5 794.5,-267.5 794.5,-267.5 788.5,-267.5 782.5,-261.5 782.5,-255.5 782.5,-255.5 782.5,-243.5 782.5,-243.5 782.5,-237.5 788.5,-231.5 794.5,-231.5 794.5,-231.5 922.5,-231.5 922.5,-231.5 928.5,-231.5 934.5,-237.5 934.5,-243.5 934.5,-243.5 934.5,-255.5 934.5,-255.5 934.5,-261.5 928.5,-267.5 922.5,-267.5"/>
<text text-anchor="middle" x="858.5" y="-245.8" font-family="Times,serif" font-size="14.00">82: make_sample_data()</text>
</g>
<!-- node_e66a499d -->
<g id="node8" class="node">
<title>node_e66a499d</title>
<path fill="#6db33f" stroke="black" d="M929.5,-321.5C929.5,-321.5 787.5,-321.5 787.5,-321.5 781.5,-321.5 775.5,-315.5 775.5,-309.5 775.5,-309.5 775.5,-297.5 775.5,-297.5 775.5,-291.5 781.5,-285.5 787.5,-285.5 787.5,-285.5 929.5,-285.5 929.5,-285.5 935.5,-285.5 941.5,-291.5 941.5,-297.5 941.5,-297.5 941.5,-309.5 941.5,-309.5 941.5,-315.5 935.5,-321.5 929.5,-321.5"/>
<text text-anchor="middle" x="858.5" y="-299.8" font-family="Times,serif" font-size="14.00">229: submit_sample_data()</text>
</g>
<!-- node_46228a66 -->
<g id="node11" class="node">
<title>node_46228a66</title>
<path fill="#cccccc" stroke="black" d="M711,-267.5C711,-267.5 546,-267.5 546,-267.5 540,-267.5 534,-261.5 534,-255.5 534,-255.5 534,-243.5 534,-243.5 534,-237.5 540,-231.5 546,-231.5 546,-231.5 711,-231.5 711,-231.5 717,-231.5 723,-237.5 723,-243.5 723,-243.5 723,-255.5 723,-255.5 723,-261.5 717,-267.5 711,-267.5"/>
<text text-anchor="middle" x="628.5" y="-245.8" font-family="Times,serif" font-size="14.00">242: send_output_data_to_api()</text>
</g>
<!-- node_52c3749c&#45;&gt;node_46228a66 -->
<g id="edge7" class="edge">
<title>node_52c3749c&#45;&gt;node_46228a66</title>
<path fill="none" stroke="#cf142b" stroke-width="2" d="M460.24,-303.5C527.94,-303.5 629,-303.5 629,-303.5 629,-303.5 629,-277.78 629,-277.78"/>
<polygon fill="#cf142b" stroke="#cf142b" stroke-width="2" points="632.5,-277.78 629,-267.78 625.5,-277.78 632.5,-277.78"/>
</g>
<!-- node_46228a66&#45;&gt;node_40d90496 -->
<g id="edge3" class="edge">
<title>node_46228a66&#45;&gt;node_40d90496</title>
<path fill="none" stroke="#cf142b" stroke-width="2" d="M629,-231.12C629,-207.22 629,-168.5 629,-168.5 629,-168.5 983.89,-168.5 983.89,-168.5"/>
<polygon fill="#cf142b" stroke="#cf142b" stroke-width="2" points="983.89,-172 993.89,-168.5 983.89,-165 983.89,-172"/>
</g>
<!-- node_46228a66&#45;&gt;node_bd10f9bd -->
<g id="edge6" class="edge">
<title>node_46228a66&#45;&gt;node_bd10f9bd</title>
<path fill="none" stroke="#cf142b" stroke-width="2" d="M723.09,-240.5C747.97,-240.5 768,-240.5 768,-240.5 768,-240.5 768,-223.54 768,-223.54"/>
<polygon fill="#cf142b" stroke="#cf142b" stroke-width="2" points="771.5,-223.54 768,-213.54 764.5,-223.54 771.5,-223.54"/>
</g>
<!-- node_46228a66&#45;&gt;node_062102e8 -->
<g id="edge4" class="edge">
<title>node_46228a66&#45;&gt;node_062102e8</title>
<path fill="none" stroke="#cf142b" stroke-width="2" d="M723.05,-249.5C723.05,-249.5 772.21,-249.5 772.21,-249.5"/>
<polygon fill="#cf142b" stroke="#cf142b" stroke-width="2" points="772.21,-253 782.21,-249.5 772.21,-246 772.21,-253"/>
</g>
<!-- node_46228a66&#45;&gt;node_e66a499d -->
<g id="edge5" class="edge">
<title>node_46228a66&#45;&gt;node_e66a499d</title>
<path fill="none" stroke="#cf142b" stroke-width="2" d="M723.39,-258.5C753.44,-258.5 779,-258.5 779,-258.5 779,-258.5 779,-275.46 779,-275.46"/>
<polygon fill="#cf142b" stroke="#cf142b" stroke-width="2" points="775.5,-275.46 779,-285.46 782.5,-275.46 775.5,-275.46"/>
</g>
</g>
</svg>
