<?xml version="1.0" encoding="UTF-8" standalone="no"?>
<!DOCTYPE svg PUBLIC "-//W3C//DTD SVG 1.1//EN"
 "http://www.w3.org/Graphics/SVG/1.1/DTD/svg11.dtd">
<!-- Generated by graphviz version 2.50.0 (20211204.2007)
 -->
<!-- Title: G Pages: 1 -->
<svg width="604pt" height="209pt"
 viewBox="0.00 0.00 604.00 208.50" xmlns="http://www.w3.org/2000/svg" xmlns:xlink="http://www.w3.org/1999/xlink">
<g id="graph0" class="graph" transform="scale(1 1) rotate(0) translate(4 204.5)">
<title>G</title>
<polygon fill="white" stroke="transparent" points="-4,4 -4,-204.5 600,-204.5 600,4 -4,4"/>
<g id="clust2" class="cluster">
<title>cluster_7efd0a7b</title>
<polygon fill="none" stroke="black" stroke-dasharray="1,5" points="95.5,-117.5 95.5,-192.5 588,-192.5 588,-117.5 95.5,-117.5"/>
<text text-anchor="middle" x="341.75" y="-177.3" font-family="Times,serif" font-size="14.00">File: verify_reports</text>
</g>
<!-- Legend -->
<g id="node1" class="node">
<title>Legend</title>
<polygon fill="none" stroke="black" points="1.5,-88.5 1.5,-105.5 266.5,-105.5 266.5,-88.5 1.5,-88.5"/>
<text text-anchor="start" x="82" y="-93.3" font-family="Times,serif" font-size="14.00">Code2flow Legend</text>
<polygon fill="none" stroke="black" points="1.5,-0.5 1.5,-88.5 266.5,-88.5 266.5,-0.5 1.5,-0.5"/>
<polygon fill="none" stroke="black" points="3.5,-65.5 3.5,-86.5 214.5,-86.5 214.5,-65.5 3.5,-65.5"/>
<text text-anchor="start" x="63" y="-72.3" font-family="Times,serif" font-size="14.00">Regular function</text>
<polygon fill="#cccccc" stroke="transparent" points="214.5,-65.5 214.5,-86.5 264.5,-86.5 264.5,-65.5 214.5,-65.5"/>
<polygon fill="none" stroke="black" points="214.5,-65.5 214.5,-86.5 264.5,-86.5 264.5,-65.5 214.5,-65.5"/>
<polygon fill="none" stroke="black" points="3.5,-44.5 3.5,-65.5 214.5,-65.5 214.5,-44.5 3.5,-44.5"/>
<text text-anchor="start" x="15" y="-51.3" font-family="Times,serif" font-size="14.00">Trunk function (nothing calls this)</text>
<polygon fill="#966f33" stroke="transparent" points="214.5,-44.5 214.5,-65.5 264.5,-65.5 264.5,-44.5 214.5,-44.5"/>
<polygon fill="none" stroke="black" points="214.5,-44.5 214.5,-65.5 264.5,-65.5 264.5,-44.5 214.5,-44.5"/>
<polygon fill="none" stroke="black" points="3.5,-23.5 3.5,-44.5 214.5,-44.5 214.5,-23.5 3.5,-23.5"/>
<text text-anchor="start" x="6.5" y="-30.3" font-family="Times,serif" font-size="14.00">Leaf function (this calls nothing else)</text>
<polygon fill="#6db33f" stroke="transparent" points="214.5,-23.5 214.5,-44.5 264.5,-44.5 264.5,-23.5 214.5,-23.5"/>
<polygon fill="none" stroke="black" points="214.5,-23.5 214.5,-44.5 264.5,-44.5 264.5,-23.5 214.5,-23.5"/>
<polygon fill="none" stroke="black" points="3.5,-2.5 3.5,-23.5 214.5,-23.5 214.5,-2.5 3.5,-2.5"/>
<text text-anchor="start" x="73" y="-9.3" font-family="Times,serif" font-size="14.00">Function call</text>
<polygon fill="none" stroke="black" points="214.5,-2.5 214.5,-23.5 264.5,-23.5 264.5,-2.5 214.5,-2.5"/>
<text text-anchor="start" x="232.5" y="-9.3" font-family="Times,serif" font-size="14.00" fill="#cf142b">→</text>
<polygon fill="none" stroke="black" points="2.5,-1.5 2.5,-87.5 265.5,-87.5 265.5,-1.5 2.5,-1.5"/>
<polygon fill="none" stroke="black" points="0,0 0,-107 267,-107 267,0 0,0"/>
</g>
<!-- node_5a065c4b -->
<g id="node2" class="node">
<title>node_5a065c4b</title>
<path fill="#cccccc" stroke="black" d="M392,-161.5C392,-161.5 315,-161.5 315,-161.5 309,-161.5 303,-155.5 303,-149.5 303,-149.5 303,-137.5 303,-137.5 303,-131.5 309,-125.5 315,-125.5 315,-125.5 392,-125.5 392,-125.5 398,-125.5 404,-131.5 404,-137.5 404,-137.5 404,-149.5 404,-149.5 404,-155.5 398,-161.5 392,-161.5"/>
<text text-anchor="middle" x="353.5" y="-139.8" font-family="Times,serif" font-size="14.00">18: compare2()</text>
</g>
<!-- node_6d712bef -->
<g id="node4" class="node">
<title>node_6d712bef</title>
<path fill="#6db33f" stroke="black" d="M568,-161.5C568,-161.5 452,-161.5 452,-161.5 446,-161.5 440,-155.5 440,-149.5 440,-149.5 440,-137.5 440,-137.5 440,-131.5 446,-125.5 452,-125.5 452,-125.5 568,-125.5 568,-125.5 574,-125.5 580,-131.5 580,-137.5 580,-137.5 580,-149.5 580,-149.5 580,-155.5 574,-161.5 568,-161.5"/>
<text text-anchor="middle" x="510" y="-139.8" font-family="Times,serif" font-size="14.00">9: get_val_from_dict()</text>
</g>
<!-- node_5a065c4b&#45;&gt;node_6d712bef -->
<g id="edge1" class="edge">
<title>node_5a065c4b&#45;&gt;node_6d712bef</title>
<path fill="none" stroke="#cf142b" stroke-width="2" d="M404.31,-143.5C404.31,-143.5 429.82,-143.5 429.82,-143.5"/>
<polygon fill="#cf142b" stroke="#cf142b" stroke-width="2" points="429.82,-147 439.82,-143.5 429.82,-140 429.82,-147"/>
</g>
<!-- node_2f8fc881 -->
<g id="node3" class="node">
<title>node_2f8fc881</title>
<path fill="#966f33" stroke="black" d="M151.5,-161.5C151.5,-161.5 115.5,-161.5 115.5,-161.5 109.5,-161.5 103.5,-155.5 103.5,-149.5 103.5,-149.5 103.5,-137.5 103.5,-137.5 103.5,-131.5 109.5,-125.5 115.5,-125.5 115.5,-125.5 151.5,-125.5 151.5,-125.5 157.5,-125.5 163.5,-131.5 163.5,-137.5 163.5,-137.5 163.5,-149.5 163.5,-149.5 163.5,-155.5 157.5,-161.5 151.5,-161.5"/>
<text text-anchor="middle" x="133.5" y="-139.8" font-family="Times,serif" font-size="14.00">54: go()</text>
</g>
<!-- node_2f8fc881&#45;&gt;node_5a065c4b -->
<g id="edge9" class="edge">
<title>node_2f8fc881&#45;&gt;node_5a065c4b</title>
<path fill="none" stroke="#cf142b" stroke-width="2" d="M163.63,-143.5C163.63,-143.5 292.66,-143.5 292.66,-143.5"/>
<polygon fill="#cf142b" stroke="#cf142b" stroke-width="2" points="292.66,-147 302.66,-143.5 292.66,-140 292.66,-147"/>
</g>
</g>
</svg>
