<?xml version="1.0" encoding="UTF-8" standalone="no"?>
<!DOCTYPE svg PUBLIC "-//W3C//DTD SVG 1.1//EN"
 "http://www.w3.org/Graphics/SVG/1.1/DTD/svg11.dtd">
<!-- Generated by graphviz version 2.50.0 (20211204.2007)
 -->
<!-- Title: G Pages: 1 -->
<svg width="873pt" height="1059pt"
 viewBox="0.00 0.00 873.00 1058.50" xmlns="http://www.w3.org/2000/svg" xmlns:xlink="http://www.w3.org/1999/xlink">
<g id="graph0" class="graph" transform="scale(1 1) rotate(0) translate(4 1054.5)">
<title>G</title>
<polygon fill="white" stroke="transparent" points="-4,4 -4,-1054.5 869,-1054.5 869,4 -4,4"/>
<g id="clust2" class="cluster">
<title>cluster_66f7bbd0</title>
<polygon fill="none" stroke="black" stroke-dasharray="1,5" points="47.5,-117.5 47.5,-1042.5 857,-1042.5 857,-117.5 47.5,-117.5"/>
<text text-anchor="middle" x="452.25" y="-1027.3" font-family="Times,serif" font-size="14.00">File: catsgo</text>
</g>
<!-- Legend -->
<g id="node1" class="node">
<title>Legend</title>
<polygon fill="none" stroke="black" points="1.5,-88.5 1.5,-105.5 266.5,-105.5 266.5,-88.5 1.5,-88.5"/>
<text text-anchor="start" x="82" y="-93.3" font-family="Times,serif" font-size="14.00">Code2flow Legend</text>
<polygon fill="none" stroke="black" points="1.5,-0.5 1.5,-88.5 266.5,-88.5 266.5,-0.5 1.5,-0.5"/>
<polygon fill="none" stroke="black" points="3.5,-65.5 3.5,-86.5 214.5,-86.5 214.5,-65.5 3.5,-65.5"/>
<text text-anchor="start" x="63" y="-72.3" font-family="Times,serif" font-size="14.00">Regular function</text>
<polygon fill="#cccccc" stroke="transparent" points="214.5,-65.5 214.5,-86.5 264.5,-86.5 264.5,-65.5 214.5,-65.5"/>
<polygon fill="none" stroke="black" points="214.5,-65.5 214.5,-86.5 264.5,-86.5 264.5,-65.5 214.5,-65.5"/>
<polygon fill="none" stroke="black" points="3.5,-44.5 3.5,-65.5 214.5,-65.5 214.5,-44.5 3.5,-44.5"/>
<text text-anchor="start" x="15" y="-51.3" font-family="Times,serif" font-size="14.00">Trunk function (nothing calls this)</text>
<polygon fill="#966f33" stroke="transparent" points="214.5,-44.5 214.5,-65.5 264.5,-65.5 264.5,-44.5 214.5,-44.5"/>
<polygon fill="none" stroke="black" points="214.5,-44.5 214.5,-65.5 264.5,-65.5 264.5,-44.5 214.5,-44.5"/>
<polygon fill="none" stroke="black" points="3.5,-23.5 3.5,-44.5 214.5,-44.5 214.5,-23.5 3.5,-23.5"/>
<text text-anchor="start" x="6.5" y="-30.3" font-family="Times,serif" font-size="14.00">Leaf function (this calls nothing else)</text>
<polygon fill="#6db33f" stroke="transparent" points="214.5,-23.5 214.5,-44.5 264.5,-44.5 264.5,-23.5 214.5,-23.5"/>
<polygon fill="none" stroke="black" points="214.5,-23.5 214.5,-44.5 264.5,-44.5 264.5,-23.5 214.5,-23.5"/>
<polygon fill="none" stroke="black" points="3.5,-2.5 3.5,-23.5 214.5,-23.5 214.5,-2.5 3.5,-2.5"/>
<text text-anchor="start" x="73" y="-9.3" font-family="Times,serif" font-size="14.00">Function call</text>
<polygon fill="none" stroke="black" points="214.5,-2.5 214.5,-23.5 264.5,-23.5 264.5,-2.5 214.5,-2.5"/>
<text text-anchor="start" x="232.5" y="-9.3" font-family="Times,serif" font-size="14.00" fill="#cf142b">→</text>
<polygon fill="none" stroke="black" points="2.5,-1.5 2.5,-87.5 265.5,-87.5 265.5,-1.5 2.5,-1.5"/>
<polygon fill="none" stroke="black" points="0,0 0,-107 267,-107 267,0 0,0"/>
</g>
<!-- node_f26f3150 -->
<g id="node2" class="node">
<title>node_f26f3150</title>
<path fill="#cccccc" stroke="black" d="M449.5,-829.5C449.5,-829.5 399.5,-829.5 399.5,-829.5 393.5,-829.5 387.5,-823.5 387.5,-817.5 387.5,-817.5 387.5,-805.5 387.5,-805.5 387.5,-799.5 393.5,-793.5 399.5,-793.5 399.5,-793.5 449.5,-793.5 449.5,-793.5 455.5,-793.5 461.5,-799.5 461.5,-805.5 461.5,-805.5 461.5,-817.5 461.5,-817.5 461.5,-823.5 455.5,-829.5 449.5,-829.5"/>
<text text-anchor="middle" x="424.5" y="-807.8" font-family="Times,serif" font-size="14.00">66: fetch()</text>
</g>
<!-- node_85df116c -->
<g id="node4" class="node">
<title>node_85df116c</title>
<path fill="#cccccc" stroke="black" d="M663,-613.5C663,-613.5 613,-613.5 613,-613.5 607,-613.5 601,-607.5 601,-601.5 601,-601.5 601,-589.5 601,-589.5 601,-583.5 607,-577.5 613,-577.5 613,-577.5 663,-577.5 663,-577.5 669,-577.5 675,-583.5 675,-589.5 675,-589.5 675,-601.5 675,-601.5 675,-607.5 669,-613.5 663,-613.5"/>
<text text-anchor="middle" x="638" y="-591.8" font-family="Times,serif" font-size="14.00">48: login()</text>
</g>
<!-- node_f26f3150&#45;&gt;node_85df116c -->
<g id="edge3" class="edge">
<title>node_f26f3150&#45;&gt;node_85df116c</title>
<path fill="none" stroke="#cf142b" stroke-width="2" d="M461.69,-811.5C522.86,-811.5 638,-811.5 638,-811.5 638,-811.5 638,-623.54 638,-623.54"/>
<polygon fill="#cf142b" stroke="#cf142b" stroke-width="2" points="641.5,-623.54 638,-613.54 634.5,-623.54 641.5,-623.54"/>
</g>
<!-- node_2f6861a0 -->
<g id="node3" class="node">
<title>node_2f6861a0</title>
<path fill="#cccccc" stroke="black" d="M462.5,-269.5C462.5,-269.5 386.5,-269.5 386.5,-269.5 380.5,-269.5 374.5,-263.5 374.5,-257.5 374.5,-257.5 374.5,-245.5 374.5,-245.5 374.5,-239.5 380.5,-233.5 386.5,-233.5 386.5,-233.5 462.5,-233.5 462.5,-233.5 468.5,-233.5 474.5,-239.5 474.5,-245.5 474.5,-245.5 474.5,-257.5 474.5,-257.5 474.5,-263.5 468.5,-269.5 462.5,-269.5"/>
<text text-anchor="middle" x="424.5" y="-247.8" font-family="Times,serif" font-size="14.00">264: run_info()</text>
</g>
<!-- node_2f6861a0&#45;&gt;node_85df116c -->
<g id="edge19" class="edge">
<title>node_2f6861a0&#45;&gt;node_85df116c</title>
<path fill="none" stroke="#cf142b" stroke-width="2" d="M474.59,-251.5C512.47,-251.5 558,-251.5 558,-251.5 558,-251.5 558,-595.5 558,-595.5 558,-595.5 590.81,-595.5 590.81,-595.5"/>
<polygon fill="#cf142b" stroke="#cf142b" stroke-width="2" points="590.81,-599 600.81,-595.5 590.81,-592 590.81,-599"/>
</g>
<!-- node_69cdc87f -->
<g id="node14" class="node">
<title>node_69cdc87f</title>
<path fill="#6db33f" stroke="black" d="M682,-306.5C682,-306.5 594,-306.5 594,-306.5 588,-306.5 582,-300.5 582,-294.5 582,-294.5 582,-282.5 582,-282.5 582,-276.5 588,-270.5 594,-270.5 594,-270.5 682,-270.5 682,-270.5 688,-270.5 694,-276.5 694,-282.5 694,-282.5 694,-294.5 694,-294.5 694,-300.5 688,-306.5 682,-306.5"/>
<text text-anchor="middle" x="638" y="-284.8" font-family="Times,serif" font-size="14.00">83: try_n_times()</text>
</g>
<!-- node_2f6861a0&#45;&gt;node_69cdc87f -->
<g id="edge20" class="edge">
<title>node_2f6861a0&#45;&gt;node_69cdc87f</title>
<path fill="none" stroke="#cf142b" stroke-width="2" d="M425,-269.99C425,-281.64 425,-294.5 425,-294.5 425,-294.5 571.76,-294.5 571.76,-294.5"/>
<polygon fill="#cf142b" stroke="#cf142b" stroke-width="2" points="571.76,-298 581.76,-294.5 571.76,-291 571.76,-298"/>
</g>
<!-- node_4415d77d -->
<g id="node8" class="node">
<title>node_4415d77d</title>
<path fill="#6db33f" stroke="black" d="M837,-586.5C837,-586.5 742,-586.5 742,-586.5 736,-586.5 730,-580.5 730,-574.5 730,-574.5 730,-562.5 730,-562.5 730,-556.5 736,-550.5 742,-550.5 742,-550.5 837,-550.5 837,-550.5 843,-550.5 849,-556.5 849,-562.5 849,-562.5 849,-574.5 849,-574.5 849,-580.5 843,-586.5 837,-586.5"/>
<text text-anchor="middle" x="789.5" y="-564.8" font-family="Times,serif" font-size="14.00">38: save_cookies()</text>
</g>
<!-- node_85df116c&#45;&gt;node_4415d77d -->
<g id="edge2" class="edge">
<title>node_85df116c&#45;&gt;node_4415d77d</title>
<path fill="none" stroke="#cf142b" stroke-width="2" d="M675.06,-582C675.06,-582 719.8,-582 719.8,-582"/>
<polygon fill="#cf142b" stroke="#cf142b" stroke-width="2" points="719.8,-585.5 729.8,-582 719.8,-578.5 719.8,-585.5"/>
</g>
<!-- node_a90759d4 -->
<g id="node12" class="node">
<title>node_a90759d4</title>
<path fill="#6db33f" stroke="black" d="M836.5,-640.5C836.5,-640.5 742.5,-640.5 742.5,-640.5 736.5,-640.5 730.5,-634.5 730.5,-628.5 730.5,-628.5 730.5,-616.5 730.5,-616.5 730.5,-610.5 736.5,-604.5 742.5,-604.5 742.5,-604.5 836.5,-604.5 836.5,-604.5 842.5,-604.5 848.5,-610.5 848.5,-616.5 848.5,-616.5 848.5,-628.5 848.5,-628.5 848.5,-634.5 842.5,-640.5 836.5,-640.5"/>
<text text-anchor="middle" x="789.5" y="-618.8" font-family="Times,serif" font-size="14.00">43: load_cookies()</text>
</g>
<!-- node_85df116c&#45;&gt;node_a90759d4 -->
<g id="edge1" class="edge">
<title>node_85df116c&#45;&gt;node_a90759d4</title>
<path fill="none" stroke="#cf142b" stroke-width="2" d="M675.06,-609C675.06,-609 720.39,-609 720.39,-609"/>
<polygon fill="#cf142b" stroke="#cf142b" stroke-width="2" points="720.39,-612.5 730.39,-609 720.39,-605.5 720.39,-612.5"/>
</g>
<!-- node_04e26fa8 -->
<g id="node5" class="node">
<title>node_04e26fa8</title>
<path fill="#cccccc" stroke="black" d="M480,-451.5C480,-451.5 369,-451.5 369,-451.5 363,-451.5 357,-445.5 357,-439.5 357,-439.5 357,-427.5 357,-427.5 357,-421.5 363,-415.5 369,-415.5 369,-415.5 480,-415.5 480,-415.5 486,-415.5 492,-421.5 492,-427.5 492,-427.5 492,-439.5 492,-439.5 492,-445.5 486,-451.5 480,-451.5"/>
<text text-anchor="middle" x="424.5" y="-429.8" font-family="Times,serif" font-size="14.00">109: run_clockwork()</text>
</g>
<!-- node_04e26fa8&#45;&gt;node_85df116c -->
<g id="edge6" class="edge">
<title>node_04e26fa8&#45;&gt;node_85df116c</title>
<path fill="none" stroke="#cf142b" stroke-width="2" d="M492.05,-433.5C554.6,-433.5 638,-433.5 638,-433.5 638,-433.5 638,-567.23 638,-567.23"/>
<polygon fill="#cf142b" stroke="#cf142b" stroke-width="2" points="634.5,-567.23 638,-577.23 641.5,-567.23 634.5,-567.23"/>
</g>
<!-- node_8b7a783b -->
<g id="node6" class="node">
<title>node_8b7a783b</title>
<path fill="#966f33" stroke="black" d="M513.5,-505.5C513.5,-505.5 335.5,-505.5 335.5,-505.5 329.5,-505.5 323.5,-499.5 323.5,-493.5 323.5,-493.5 323.5,-481.5 323.5,-481.5 323.5,-475.5 329.5,-469.5 335.5,-469.5 335.5,-469.5 513.5,-469.5 513.5,-469.5 519.5,-469.5 525.5,-475.5 525.5,-481.5 525.5,-481.5 525.5,-493.5 525.5,-493.5 525.5,-499.5 519.5,-505.5 513.5,-505.5"/>
<text text-anchor="middle" x="424.5" y="-483.8" font-family="Times,serif" font-size="14.00">174: run_covid_illumina_catsup()</text>
</g>
<!-- node_8b7a783b&#45;&gt;node_85df116c -->
<g id="edge9" class="edge">
<title>node_8b7a783b&#45;&gt;node_85df116c</title>
<path fill="none" stroke="#cf142b" stroke-width="2" d="M525.55,-487.5C577.07,-487.5 629,-487.5 629,-487.5 629,-487.5 629,-567.18 629,-567.18"/>
<polygon fill="#cf142b" stroke="#cf142b" stroke-width="2" points="625.5,-567.18 629,-577.18 632.5,-567.18 625.5,-567.18"/>
</g>
<!-- node_a286da8b -->
<g id="node7" class="node">
<title>node_a286da8b</title>
<path fill="#966f33" stroke="black" d="M521.5,-1011.5C521.5,-1011.5 327.5,-1011.5 327.5,-1011.5 321.5,-1011.5 315.5,-1005.5 315.5,-999.5 315.5,-999.5 315.5,-987.5 315.5,-987.5 315.5,-981.5 321.5,-975.5 327.5,-975.5 327.5,-975.5 521.5,-975.5 521.5,-975.5 527.5,-975.5 533.5,-981.5 533.5,-987.5 533.5,-987.5 533.5,-999.5 533.5,-999.5 533.5,-1005.5 527.5,-1011.5 521.5,-1011.5"/>
<text text-anchor="middle" x="424.5" y="-989.8" font-family="Times,serif" font-size="14.00">293: download_nextflow_task_data()</text>
</g>
<!-- node_a286da8b&#45;&gt;node_85df116c -->
<g id="edge24" class="edge">
<title>node_a286da8b&#45;&gt;node_85df116c</title>
<path fill="none" stroke="#cf142b" stroke-width="2" d="M533.59,-993.5C597.59,-993.5 666,-993.5 666,-993.5 666,-993.5 666,-623.64 666,-623.64"/>
<polygon fill="#cf142b" stroke="#cf142b" stroke-width="2" points="669.5,-623.64 666,-613.64 662.5,-623.64 669.5,-623.64"/>
</g>
<!-- node_777e61a2 -->
<g id="node9" class="node">
<title>node_777e61a2</title>
<path fill="#966f33" stroke="black" d="M518,-957.5C518,-957.5 331,-957.5 331,-957.5 325,-957.5 319,-951.5 319,-945.5 319,-945.5 319,-933.5 319,-933.5 319,-927.5 325,-921.5 331,-921.5 331,-921.5 518,-921.5 518,-921.5 524,-921.5 530,-927.5 530,-933.5 530,-933.5 530,-945.5 530,-945.5 530,-951.5 524,-957.5 518,-957.5"/>
<text text-anchor="middle" x="424.5" y="-935.8" font-family="Times,serif" font-size="14.00">155: run_covid_illumina_objstore()</text>
</g>
<!-- node_777e61a2&#45;&gt;node_85df116c -->
<g id="edge8" class="edge">
<title>node_777e61a2&#45;&gt;node_85df116c</title>
<path fill="none" stroke="#cf142b" stroke-width="2" d="M530.21,-939.5C591.62,-939.5 657,-939.5 657,-939.5 657,-939.5 657,-623.51 657,-623.51"/>
<polygon fill="#cf142b" stroke="#cf142b" stroke-width="2" points="660.5,-623.51 657,-613.51 653.5,-623.51 660.5,-623.51"/>
</g>
<!-- node_310ea42e -->
<g id="node10" class="node">
<title>node_310ea42e</title>
<path fill="#966f33" stroke="black" d="M199.5,-343.5C199.5,-343.5 67.5,-343.5 67.5,-343.5 61.5,-343.5 55.5,-337.5 55.5,-331.5 55.5,-331.5 55.5,-319.5 55.5,-319.5 55.5,-313.5 61.5,-307.5 67.5,-307.5 67.5,-307.5 199.5,-307.5 199.5,-307.5 205.5,-307.5 211.5,-313.5 211.5,-319.5 211.5,-319.5 211.5,-331.5 211.5,-331.5 211.5,-337.5 205.5,-343.5 199.5,-343.5"/>
<text text-anchor="middle" x="133.5" y="-321.8" font-family="Times,serif" font-size="14.00">227: check_run_resume()</text>
</g>
<!-- node_20ef6e0c -->
<g id="node24" class="node">
<title>node_20ef6e0c</title>
<path fill="#cccccc" stroke="black" d="M467.5,-343.5C467.5,-343.5 381.5,-343.5 381.5,-343.5 375.5,-343.5 369.5,-337.5 369.5,-331.5 369.5,-331.5 369.5,-319.5 369.5,-319.5 369.5,-313.5 375.5,-307.5 381.5,-307.5 381.5,-307.5 467.5,-307.5 467.5,-307.5 473.5,-307.5 479.5,-313.5 479.5,-319.5 479.5,-319.5 479.5,-331.5 479.5,-331.5 479.5,-337.5 473.5,-343.5 467.5,-343.5"/>
<text text-anchor="middle" x="424.5" y="-321.8" font-family="Times,serif" font-size="14.00">209: check_run()</text>
</g>
<!-- node_310ea42e&#45;&gt;node_20ef6e0c -->
<g id="edge14" class="edge">
<title>node_310ea42e&#45;&gt;node_20ef6e0c</title>
<path fill="none" stroke="#cf142b" stroke-width="2" d="M211.87,-319.5C211.87,-319.5 359.05,-319.5 359.05,-319.5"/>
<polygon fill="#cf142b" stroke="#cf142b" stroke-width="2" points="359.05,-323 369.05,-319.5 359.05,-316 359.05,-323"/>
</g>
<!-- node_229bee2f -->
<g id="node11" class="node">
<title>node_229bee2f</title>
<path fill="#966f33" stroke="black" d="M476.5,-903.5C476.5,-903.5 372.5,-903.5 372.5,-903.5 366.5,-903.5 360.5,-897.5 360.5,-891.5 360.5,-891.5 360.5,-879.5 360.5,-879.5 360.5,-873.5 366.5,-867.5 372.5,-867.5 372.5,-867.5 476.5,-867.5 476.5,-867.5 482.5,-867.5 488.5,-873.5 488.5,-879.5 488.5,-879.5 488.5,-891.5 488.5,-891.5 488.5,-897.5 482.5,-903.5 476.5,-903.5"/>
<text text-anchor="middle" x="424.5" y="-881.8" font-family="Times,serif" font-size="14.00">239: download_url()</text>
</g>
<!-- node_229bee2f&#45;&gt;node_85df116c -->
<g id="edge15" class="edge">
<title>node_229bee2f&#45;&gt;node_85df116c</title>
<path fill="none" stroke="#cf142b" stroke-width="2" d="M488.55,-885.5C554.59,-885.5 648,-885.5 648,-885.5 648,-885.5 648,-623.64 648,-623.64"/>
<polygon fill="#cf142b" stroke="#cf142b" stroke-width="2" points="651.5,-623.64 648,-613.64 644.5,-623.64 651.5,-623.64"/>
</g>
<!-- node_f8bea0ad -->
<g id="node13" class="node">
<title>node_f8bea0ad</title>
<path fill="#966f33" stroke="black" d="M472.5,-775.5C472.5,-775.5 376.5,-775.5 376.5,-775.5 370.5,-775.5 364.5,-769.5 364.5,-763.5 364.5,-763.5 364.5,-751.5 364.5,-751.5 364.5,-745.5 370.5,-739.5 376.5,-739.5 376.5,-739.5 472.5,-739.5 472.5,-739.5 478.5,-739.5 484.5,-745.5 484.5,-751.5 484.5,-751.5 484.5,-763.5 484.5,-763.5 484.5,-769.5 478.5,-775.5 472.5,-775.5"/>
<text text-anchor="middle" x="424.5" y="-753.8" font-family="Times,serif" font-size="14.00">195: get_all_runs()</text>
</g>
<!-- node_f8bea0ad&#45;&gt;node_85df116c -->
<g id="edge10" class="edge">
<title>node_f8bea0ad&#45;&gt;node_85df116c</title>
<path fill="none" stroke="#cf142b" stroke-width="2" d="M484.75,-757.5C545.07,-757.5 629,-757.5 629,-757.5 629,-757.5 629,-623.77 629,-623.77"/>
<polygon fill="#cf142b" stroke="#cf142b" stroke-width="2" points="632.5,-623.77 629,-613.77 625.5,-623.77 632.5,-623.77"/>
</g>
<!-- node_40cc2032 -->
<g id="node15" class="node">
<title>node_40cc2032</title>
<path fill="#966f33" stroke="black" d="M493,-721.5C493,-721.5 356,-721.5 356,-721.5 350,-721.5 344,-715.5 344,-709.5 344,-709.5 344,-697.5 344,-697.5 344,-691.5 350,-685.5 356,-685.5 356,-685.5 493,-685.5 493,-685.5 499,-685.5 505,-691.5 505,-697.5 505,-697.5 505,-709.5 505,-709.5 505,-715.5 499,-721.5 493,-721.5"/>
<text text-anchor="middle" x="424.5" y="-699.8" font-family="Times,serif" font-size="14.00">135: run_covid_illumina()</text>
</g>
<!-- node_40cc2032&#45;&gt;node_85df116c -->
<g id="edge7" class="edge">
<title>node_40cc2032&#45;&gt;node_85df116c</title>
<path fill="none" stroke="#cf142b" stroke-width="2" d="M505.15,-703.5C559,-703.5 620,-703.5 620,-703.5 620,-703.5 620,-623.82 620,-623.82"/>
<polygon fill="#cf142b" stroke="#cf142b" stroke-width="2" points="623.5,-623.82 620,-613.82 616.5,-623.82 623.5,-623.82"/>
</g>
<!-- node_bfacbd7c -->
<g id="node16" class="node">
<title>node_bfacbd7c</title>
<path fill="#cccccc" stroke="black" d="M481,-559.5C481,-559.5 368,-559.5 368,-559.5 362,-559.5 356,-553.5 356,-547.5 356,-547.5 356,-535.5 356,-535.5 356,-529.5 362,-523.5 368,-523.5 368,-523.5 481,-523.5 481,-523.5 487,-523.5 493,-529.5 493,-535.5 493,-535.5 493,-547.5 493,-547.5 493,-553.5 487,-559.5 481,-559.5"/>
<text text-anchor="middle" x="424.5" y="-537.8" font-family="Times,serif" font-size="14.00">245: download_cmd()</text>
</g>
<!-- node_bfacbd7c&#45;&gt;node_85df116c -->
<g id="edge16" class="edge">
<title>node_bfacbd7c&#45;&gt;node_85df116c</title>
<path fill="none" stroke="#cf142b" stroke-width="2" d="M493.15,-555C546.33,-555 611,-555 611,-555 611,-555 611,-567.15 611,-567.15"/>
<polygon fill="#cf142b" stroke="#cf142b" stroke-width="2" points="607.5,-567.15 611,-577.15 614.5,-567.15 607.5,-567.15"/>
</g>
<!-- node_ea78c1ac -->
<g id="node17" class="node">
<title>node_ea78c1ac</title>
<path fill="#6db33f" stroke="black" d="M467.5,-161.5C467.5,-161.5 381.5,-161.5 381.5,-161.5 375.5,-161.5 369.5,-155.5 369.5,-149.5 369.5,-149.5 369.5,-137.5 369.5,-137.5 369.5,-131.5 375.5,-125.5 381.5,-125.5 381.5,-125.5 467.5,-125.5 467.5,-125.5 473.5,-125.5 479.5,-131.5 479.5,-137.5 479.5,-137.5 479.5,-149.5 479.5,-149.5 479.5,-155.5 473.5,-161.5 467.5,-161.5"/>
<text text-anchor="middle" x="424.5" y="-139.8" font-family="Times,serif" font-size="14.00">17: load_config()</text>
</g>
<!-- node_b14ef68c -->
<g id="node18" class="node">
<title>node_b14ef68c</title>
<path fill="#966f33" stroke="black" d="M476,-667.5C476,-667.5 373,-667.5 373,-667.5 367,-667.5 361,-661.5 361,-655.5 361,-655.5 361,-643.5 361,-643.5 361,-637.5 367,-631.5 373,-631.5 373,-631.5 476,-631.5 476,-631.5 482,-631.5 488,-637.5 488,-643.5 488,-643.5 488,-655.5 488,-655.5 488,-661.5 482,-667.5 476,-667.5"/>
<text text-anchor="middle" x="424.5" y="-645.8" font-family="Times,serif" font-size="14.00">202: get_all_runs2()</text>
</g>
<!-- node_b14ef68c&#45;&gt;node_85df116c -->
<g id="edge11" class="edge">
<title>node_b14ef68c&#45;&gt;node_85df116c</title>
<path fill="none" stroke="#cf142b" stroke-width="2" d="M488.16,-636C542.19,-636 611,-636 611,-636 611,-636 611,-623.85 611,-623.85"/>
<polygon fill="#cf142b" stroke="#cf142b" stroke-width="2" points="614.5,-623.85 611,-613.85 607.5,-623.85 614.5,-623.85"/>
</g>
<!-- node_639375f9 -->
<g id="node19" class="node">
<title>node_639375f9</title>
<path fill="#966f33" stroke="black" d="M163,-161.5C163,-161.5 104,-161.5 104,-161.5 98,-161.5 92,-155.5 92,-149.5 92,-149.5 92,-137.5 92,-137.5 92,-131.5 98,-125.5 104,-125.5 104,-125.5 163,-125.5 163,-125.5 169,-125.5 175,-131.5 175,-137.5 175,-137.5 175,-149.5 175,-149.5 175,-155.5 169,-161.5 163,-161.5"/>
<text text-anchor="middle" x="133.5" y="-139.8" font-family="Times,serif" font-size="14.00">0: (global)()</text>
</g>
<!-- node_639375f9&#45;&gt;node_ea78c1ac -->
<g id="edge32" class="edge">
<title>node_639375f9&#45;&gt;node_ea78c1ac</title>
<path fill="none" stroke="#cf142b" stroke-width="2" d="M175.19,-143.5C175.19,-143.5 359.46,-143.5 359.46,-143.5"/>
<polygon fill="#cf142b" stroke="#cf142b" stroke-width="2" points="359.46,-147 369.46,-143.5 359.46,-140 359.46,-147"/>
</g>
<!-- node_89bccece -->
<g id="node20" class="node">
<title>node_89bccece</title>
<path fill="#cccccc" stroke="black" d="M468.5,-397.5C468.5,-397.5 380.5,-397.5 380.5,-397.5 374.5,-397.5 368.5,-391.5 368.5,-385.5 368.5,-385.5 368.5,-373.5 368.5,-373.5 368.5,-367.5 374.5,-361.5 380.5,-361.5 380.5,-361.5 468.5,-361.5 468.5,-361.5 474.5,-361.5 480.5,-367.5 480.5,-373.5 480.5,-373.5 480.5,-385.5 480.5,-385.5 480.5,-391.5 474.5,-397.5 468.5,-397.5"/>
<text text-anchor="middle" x="424.5" y="-375.8" font-family="Times,serif" font-size="14.00">99: check_fetch()</text>
</g>
<!-- node_89bccece&#45;&gt;node_85df116c -->
<g id="edge4" class="edge">
<title>node_89bccece&#45;&gt;node_85df116c</title>
<path fill="none" stroke="#cf142b" stroke-width="2" d="M480.61,-385.5C546.82,-385.5 648,-385.5 648,-385.5 648,-385.5 648,-567.23 648,-567.23"/>
<polygon fill="#cf142b" stroke="#cf142b" stroke-width="2" points="644.5,-567.23 648,-577.23 651.5,-567.23 644.5,-567.23"/>
</g>
<!-- node_89bccece&#45;&gt;node_69cdc87f -->
<g id="edge5" class="edge">
<title>node_89bccece&#45;&gt;node_69cdc87f</title>
<path fill="none" stroke="#cf142b" stroke-width="2" d="M480.8,-373.5C530.46,-373.5 595,-373.5 595,-373.5 595,-373.5 595,-316.53 595,-316.53"/>
<polygon fill="#cf142b" stroke="#cf142b" stroke-width="2" points="598.5,-316.53 595,-306.53 591.5,-316.53 598.5,-316.53"/>
</g>
<!-- node_87375bfd -->
<g id="node21" class="node">
<title>node_87375bfd</title>
<path fill="#966f33" stroke="black" d="M534,-613.5C534,-613.5 315,-613.5 315,-613.5 309,-613.5 303,-607.5 303,-601.5 303,-601.5 303,-589.5 303,-589.5 303,-583.5 309,-577.5 315,-577.5 315,-577.5 534,-577.5 534,-577.5 540,-577.5 546,-583.5 546,-589.5 546,-589.5 546,-601.5 546,-601.5 546,-607.5 540,-613.5 534,-613.5"/>
<text text-anchor="middle" x="424.5" y="-591.8" font-family="Times,serif" font-size="14.00">303: download_nextflow_task_data_csv()</text>
</g>
<!-- node_87375bfd&#45;&gt;node_85df116c -->
<g id="edge25" class="edge">
<title>node_87375bfd&#45;&gt;node_85df116c</title>
<path fill="none" stroke="#cf142b" stroke-width="2" d="M546.22,-604.5C546.22,-604.5 590.84,-604.5 590.84,-604.5"/>
<polygon fill="#cf142b" stroke="#cf142b" stroke-width="2" points="590.84,-608 600.84,-604.5 590.84,-601 590.84,-608"/>
</g>
<!-- node_fececf7c -->
<g id="node22" class="node">
<title>node_fececf7c</title>
<path fill="#966f33" stroke="black" d="M155,-505.5C155,-505.5 112,-505.5 112,-505.5 106,-505.5 100,-499.5 100,-493.5 100,-493.5 100,-481.5 100,-481.5 100,-475.5 106,-469.5 112,-469.5 112,-469.5 155,-469.5 155,-469.5 161,-469.5 167,-475.5 167,-481.5 167,-481.5 167,-493.5 167,-493.5 167,-499.5 161,-505.5 155,-505.5"/>
<text text-anchor="middle" x="133.5" y="-483.8" font-family="Times,serif" font-size="14.00">315: go()</text>
</g>
<!-- node_fececf7c&#45;&gt;node_f26f3150 -->
<g id="edge27" class="edge">
<title>node_fececf7c&#45;&gt;node_f26f3150</title>
<path fill="none" stroke="#cf142b" stroke-width="2" d="M134,-505.85C134,-574.39 134,-811.5 134,-811.5 134,-811.5 377.41,-811.5 377.41,-811.5"/>
<polygon fill="#cf142b" stroke="#cf142b" stroke-width="2" points="377.41,-815 387.41,-811.5 377.41,-808 377.41,-815"/>
</g>
<!-- node_fececf7c&#45;&gt;node_85df116c -->
<g id="edge26" class="edge">
<title>node_fececf7c&#45;&gt;node_85df116c</title>
<path fill="none" stroke="#cf142b" stroke-width="2" d="M117,-505.66C117,-510.54 117,-514.5 117,-514.5 117,-514.5 620,-514.5 620,-514.5 620,-514.5 620,-567.12 620,-567.12"/>
<polygon fill="#cf142b" stroke="#cf142b" stroke-width="2" points="616.5,-567.12 620,-577.12 623.5,-567.12 616.5,-567.12"/>
</g>
<!-- node_fececf7c&#45;&gt;node_04e26fa8 -->
<g id="edge29" class="edge">
<title>node_fececf7c&#45;&gt;node_04e26fa8</title>
<path fill="none" stroke="#cf142b" stroke-width="2" d="M145,-469.22C145,-453.55 145,-433.5 145,-433.5 145,-433.5 346.84,-433.5 346.84,-433.5"/>
<polygon fill="#cf142b" stroke="#cf142b" stroke-width="2" points="346.84,-437 356.84,-433.5 346.84,-430 346.84,-437"/>
</g>
<!-- node_fececf7c&#45;&gt;node_bfacbd7c -->
<g id="edge31" class="edge">
<title>node_fececf7c&#45;&gt;node_bfacbd7c</title>
<path fill="none" stroke="#cf142b" stroke-width="2" d="M151,-505.78C151,-521.45 151,-541.5 151,-541.5 151,-541.5 345.84,-541.5 345.84,-541.5"/>
<polygon fill="#cf142b" stroke="#cf142b" stroke-width="2" points="345.84,-545 355.84,-541.5 345.84,-538 345.84,-545"/>
</g>
<!-- node_fececf7c&#45;&gt;node_89bccece -->
<g id="edge28" class="edge">
<title>node_fececf7c&#45;&gt;node_89bccece</title>
<path fill="none" stroke="#cf142b" stroke-width="2" d="M123,-469.18C123,-438.37 123,-379.5 123,-379.5 123,-379.5 358.5,-379.5 358.5,-379.5"/>
<polygon fill="#cf142b" stroke="#cf142b" stroke-width="2" points="358.5,-383 368.5,-379.5 358.5,-376 358.5,-383"/>
</g>
<!-- node_fececf7c&#45;&gt;node_20ef6e0c -->
<g id="edge30" class="edge">
<title>node_fececf7c&#45;&gt;node_20ef6e0c</title>
<path fill="none" stroke="#cf142b" stroke-width="2" d="M167.22,-487.5C201.31,-487.5 249,-487.5 249,-487.5 249,-487.5 249,-331.5 249,-331.5 249,-331.5 359.45,-331.5 359.45,-331.5"/>
<polygon fill="#cf142b" stroke="#cf142b" stroke-width="2" points="359.45,-335 369.45,-331.5 359.45,-328 359.45,-335"/>
</g>
<!-- node_eebad9de -->
<g id="node23" class="node">
<title>node_eebad9de</title>
<path fill="#cccccc" stroke="black" d="M485.5,-215.5C485.5,-215.5 363.5,-215.5 363.5,-215.5 357.5,-215.5 351.5,-209.5 351.5,-203.5 351.5,-203.5 351.5,-191.5 351.5,-191.5 351.5,-185.5 357.5,-179.5 363.5,-179.5 363.5,-179.5 485.5,-179.5 485.5,-179.5 491.5,-179.5 497.5,-185.5 497.5,-191.5 497.5,-191.5 497.5,-203.5 497.5,-203.5 497.5,-209.5 491.5,-215.5 485.5,-215.5"/>
<text text-anchor="middle" x="424.5" y="-193.8" font-family="Times,serif" font-size="14.00">251: download_report()</text>
</g>
<!-- node_eebad9de&#45;&gt;node_85df116c -->
<g id="edge17" class="edge">
<title>node_eebad9de&#45;&gt;node_85df116c</title>
<path fill="none" stroke="#cf142b" stroke-width="2" d="M497.68,-197.5C533.91,-197.5 570,-197.5 570,-197.5 570,-197.5 570,-586.5 570,-586.5 570,-586.5 590.82,-586.5 590.82,-586.5"/>
<polygon fill="#cf142b" stroke="#cf142b" stroke-width="2" points="590.82,-590 600.82,-586.5 590.82,-583 590.82,-590"/>
</g>
<!-- node_eebad9de&#45;&gt;node_69cdc87f -->
<g id="edge18" class="edge">
<title>node_eebad9de&#45;&gt;node_69cdc87f</title>
<path fill="none" stroke="#cf142b" stroke-width="2" d="M487,-215.53C487,-240.48 487,-282.5 487,-282.5 487,-282.5 571.77,-282.5 571.77,-282.5"/>
<polygon fill="#cf142b" stroke="#cf142b" stroke-width="2" points="571.77,-286 581.77,-282.5 571.77,-279 571.77,-286"/>
</g>
<!-- node_20ef6e0c&#45;&gt;node_85df116c -->
<g id="edge12" class="edge">
<title>node_20ef6e0c&#45;&gt;node_85df116c</title>
<path fill="none" stroke="#cf142b" stroke-width="2" d="M479.6,-331.5C550.88,-331.5 666,-331.5 666,-331.5 666,-331.5 666,-567.35 666,-567.35"/>
<polygon fill="#cf142b" stroke="#cf142b" stroke-width="2" points="662.5,-567.35 666,-577.35 669.5,-567.35 662.5,-567.35"/>
</g>
<!-- node_20ef6e0c&#45;&gt;node_69cdc87f -->
<g id="edge13" class="edge">
<title>node_20ef6e0c&#45;&gt;node_69cdc87f</title>
<path fill="none" stroke="#cf142b" stroke-width="2" d="M479.73,-319.5C527.52,-319.5 589,-319.5 589,-319.5 589,-319.5 589,-316.53 589,-316.53"/>
<polygon fill="#cf142b" stroke="#cf142b" stroke-width="2" points="592.5,-316.53 589,-306.53 585.5,-316.53 592.5,-316.53"/>
</g>
<!-- node_98b16288 -->
<g id="node25" class="node">
<title>node_98b16288</title>
<path fill="#966f33" stroke="black" d="M197,-269.5C197,-269.5 70,-269.5 70,-269.5 64,-269.5 58,-263.5 58,-257.5 58,-257.5 58,-245.5 58,-245.5 58,-239.5 64,-233.5 70,-233.5 70,-233.5 197,-233.5 197,-233.5 203,-233.5 209,-239.5 209,-245.5 209,-245.5 209,-257.5 209,-257.5 209,-263.5 203,-269.5 197,-269.5"/>
<text text-anchor="middle" x="133.5" y="-247.8" font-family="Times,serif" font-size="14.00">277: download_reports()</text>
</g>
<!-- node_98b16288&#45;&gt;node_2f6861a0 -->
<g id="edge22" class="edge">
<title>node_98b16288&#45;&gt;node_2f6861a0</title>
<path fill="none" stroke="#cf142b" stroke-width="2" d="M209.2,-251.5C209.2,-251.5 364.34,-251.5 364.34,-251.5"/>
<polygon fill="#cf142b" stroke="#cf142b" stroke-width="2" points="364.34,-255 374.34,-251.5 364.34,-248 364.34,-255"/>
</g>
<!-- node_98b16288&#45;&gt;node_85df116c -->
<g id="edge21" class="edge">
<title>node_98b16288&#45;&gt;node_85df116c</title>
<path fill="none" stroke="#cf142b" stroke-width="2" d="M209.06,-260.5C221.27,-260.5 230,-260.5 230,-260.5 230,-260.5 230,-352.5 230,-352.5 230,-352.5 657,-352.5 657,-352.5 657,-352.5 657,-567.24 657,-567.24"/>
<polygon fill="#cf142b" stroke="#cf142b" stroke-width="2" points="653.5,-567.24 657,-577.24 660.5,-567.24 653.5,-567.24"/>
</g>
<!-- node_98b16288&#45;&gt;node_eebad9de -->
<g id="edge23" class="edge">
<title>node_98b16288&#45;&gt;node_eebad9de</title>
<path fill="none" stroke="#cf142b" stroke-width="2" d="M209.28,-242.5C276.13,-242.5 363,-242.5 363,-242.5 363,-242.5 363,-225.54 363,-225.54"/>
<polygon fill="#cf142b" stroke="#cf142b" stroke-width="2" points="366.5,-225.54 363,-215.54 359.5,-225.54 366.5,-225.54"/>
</g>
</g>
</svg>
