<?xml version="1.0" encoding="UTF-8" standalone="no"?>
<!DOCTYPE svg PUBLIC "-//W3C//DTD SVG 1.1//EN"
 "http://www.w3.org/Graphics/SVG/1.1/DTD/svg11.dtd">
<!-- Generated by graphviz version 2.50.0 (20211204.2007)
 -->
<!-- Title: G Pages: 1 -->
<svg width="907pt" height="389pt"
 viewBox="0.00 0.00 907.00 388.50" xmlns="http://www.w3.org/2000/svg" xmlns:xlink="http://www.w3.org/1999/xlink">
<g id="graph0" class="graph" transform="scale(1 1) rotate(0) translate(4 384.5)">
<title>G</title>
<polygon fill="white" stroke="transparent" points="-4,4 -4,-384.5 903,-384.5 903,4 -4,4"/>
<g id="clust2" class="cluster">
<title>cluster_a17846ea</title>
<polygon fill="none" stroke="black" stroke-dasharray="1,5" points="82.5,-115.5 82.5,-372.5 891,-372.5 891,-115.5 82.5,-115.5"/>
<text text-anchor="middle" x="486.75" y="-357.3" font-family="Times,serif" font-size="14.00">File: dir_watcher</text>
</g>
<!-- Legend -->
<g id="node1" class="node">
<title>Legend</title>
<polygon fill="none" stroke="black" points="1.5,-88.5 1.5,-105.5 266.5,-105.5 266.5,-88.5 1.5,-88.5"/>
<text text-anchor="start" x="82" y="-93.3" font-family="Times,serif" font-size="14.00">Code2flow Legend</text>
<polygon fill="none" stroke="black" points="1.5,-0.5 1.5,-88.5 266.5,-88.5 266.5,-0.5 1.5,-0.5"/>
<polygon fill="none" stroke="black" points="3.5,-65.5 3.5,-86.5 214.5,-86.5 214.5,-65.5 3.5,-65.5"/>
<text text-anchor="start" x="63" y="-72.3" font-family="Times,serif" font-size="14.00">Regular function</text>
<polygon fill="#cccccc" stroke="transparent" points="214.5,-65.5 214.5,-86.5 264.5,-86.5 264.5,-65.5 214.5,-65.5"/>
<polygon fill="none" stroke="black" points="214.5,-65.5 214.5,-86.5 264.5,-86.5 264.5,-65.5 214.5,-65.5"/>
<polygon fill="none" stroke="black" points="3.5,-44.5 3.5,-65.5 214.5,-65.5 214.5,-44.5 3.5,-44.5"/>
<text text-anchor="start" x="15" y="-51.3" font-family="Times,serif" font-size="14.00">Trunk function (nothing calls this)</text>
<polygon fill="#966f33" stroke="transparent" points="214.5,-44.5 214.5,-65.5 264.5,-65.5 264.5,-44.5 214.5,-44.5"/>
<polygon fill="none" stroke="black" points="214.5,-44.5 214.5,-65.5 264.5,-65.5 264.5,-44.5 214.5,-44.5"/>
<polygon fill="none" stroke="black" points="3.5,-23.5 3.5,-44.5 214.5,-44.5 214.5,-23.5 3.5,-23.5"/>
<text text-anchor="start" x="6.5" y="-30.3" font-family="Times,serif" font-size="14.00">Leaf function (this calls nothing else)</text>
<polygon fill="#6db33f" stroke="transparent" points="214.5,-23.5 214.5,-44.5 264.5,-44.5 264.5,-23.5 214.5,-23.5"/>
<polygon fill="none" stroke="black" points="214.5,-23.5 214.5,-44.5 264.5,-44.5 264.5,-23.5 214.5,-23.5"/>
<polygon fill="none" stroke="black" points="3.5,-2.5 3.5,-23.5 214.5,-23.5 214.5,-2.5 3.5,-2.5"/>
<text text-anchor="start" x="73" y="-9.3" font-family="Times,serif" font-size="14.00">Function call</text>
<polygon fill="none" stroke="black" points="214.5,-2.5 214.5,-23.5 264.5,-23.5 264.5,-2.5 214.5,-2.5"/>
<text text-anchor="start" x="232.5" y="-9.3" font-family="Times,serif" font-size="14.00" fill="#cf142b">→</text>
<polygon fill="none" stroke="black" points="2.5,-1.5 2.5,-87.5 265.5,-87.5 265.5,-1.5 2.5,-1.5"/>
<polygon fill="none" stroke="black" points="0,0 0,-107 267,-107 267,0 0,0"/>
</g>
<!-- node_a01fcd2a -->
<g id="node2" class="node">
<title>node_a01fcd2a</title>
<path fill="#cccccc" stroke="black" d="M636.5,-159.5C636.5,-159.5 499.5,-159.5 499.5,-159.5 493.5,-159.5 487.5,-153.5 487.5,-147.5 487.5,-147.5 487.5,-135.5 487.5,-135.5 487.5,-129.5 493.5,-123.5 499.5,-123.5 499.5,-123.5 636.5,-123.5 636.5,-123.5 642.5,-123.5 648.5,-129.5 648.5,-135.5 648.5,-135.5 648.5,-147.5 648.5,-147.5 648.5,-153.5 642.5,-159.5 636.5,-159.5"/>
<text text-anchor="middle" x="568" y="-137.8" font-family="Times,serif" font-size="14.00">106: which_pipeline_csv()</text>
</g>
<!-- node_c3a30672 -->
<g id="node8" class="node">
<title>node_c3a30672</title>
<path fill="#6db33f" stroke="black" d="M871,-231.5C871,-231.5 699,-231.5 699,-231.5 693,-231.5 687,-225.5 687,-219.5 687,-219.5 687,-207.5 687,-207.5 687,-201.5 693,-195.5 699,-195.5 699,-195.5 871,-195.5 871,-195.5 877,-195.5 883,-201.5 883,-207.5 883,-207.5 883,-219.5 883,-219.5 883,-225.5 877,-231.5 871,-231.5"/>
<text text-anchor="middle" x="785" y="-209.8" font-family="Times,serif" font-size="14.00">138: get_and_format_metadata()</text>
</g>
<!-- node_a01fcd2a&#45;&gt;node_c3a30672 -->
<g id="edge1" class="edge">
<title>node_a01fcd2a&#45;&gt;node_c3a30672</title>
<path fill="none" stroke="#cf142b" stroke-width="2" d="M648.8,-141.5C710.5,-141.5 785,-141.5 785,-141.5 785,-141.5 785,-185.33 785,-185.33"/>
<polygon fill="#cf142b" stroke="#cf142b" stroke-width="2" points="781.5,-185.33 785,-195.33 788.5,-185.33 781.5,-185.33"/>
</g>
<!-- node_7489acdc -->
<g id="node3" class="node">
<title>node_7489acdc</title>
<path fill="#966f33" stroke="black" d="M164.5,-213.5C164.5,-213.5 102.5,-213.5 102.5,-213.5 96.5,-213.5 90.5,-207.5 90.5,-201.5 90.5,-201.5 90.5,-189.5 90.5,-189.5 90.5,-183.5 96.5,-177.5 102.5,-177.5 102.5,-177.5 164.5,-177.5 164.5,-177.5 170.5,-177.5 176.5,-183.5 176.5,-189.5 176.5,-189.5 176.5,-201.5 176.5,-201.5 176.5,-207.5 170.5,-213.5 164.5,-213.5"/>
<text text-anchor="middle" x="133.5" y="-191.8" font-family="Times,serif" font-size="14.00">348: watch()</text>
</g>
<!-- node_34712e57 -->
<g id="node4" class="node">
<title>node_34712e57</title>
<path fill="#6db33f" stroke="black" d="M437,-159.5C437,-159.5 315,-159.5 315,-159.5 309,-159.5 303,-153.5 303,-147.5 303,-147.5 303,-135.5 303,-135.5 303,-129.5 309,-123.5 315,-123.5 315,-123.5 437,-123.5 437,-123.5 443,-123.5 449,-129.5 449,-135.5 449,-135.5 449,-147.5 449,-147.5 449,-153.5 443,-159.5 437,-159.5"/>
<text text-anchor="middle" x="376" y="-137.8" font-family="Times,serif" font-size="14.00">36: get_cached_dirlist()</text>
</g>
<!-- node_7489acdc&#45;&gt;node_34712e57 -->
<g id="edge7" class="edge">
<title>node_7489acdc&#45;&gt;node_34712e57</title>
<path fill="none" stroke="#cf142b" stroke-width="2" d="M176.63,-189.5C228.31,-189.5 308,-189.5 308,-189.5 308,-189.5 308,-169.65 308,-169.65"/>
<polygon fill="#cf142b" stroke="#cf142b" stroke-width="2" points="311.5,-169.65 308,-159.65 304.5,-169.65 311.5,-169.65"/>
</g>
<!-- node_d7ca6b80 -->
<g id="node7" class="node">
<title>node_d7ca6b80</title>
<path fill="#6db33f" stroke="black" d="M428,-213.5C428,-213.5 324,-213.5 324,-213.5 318,-213.5 312,-207.5 312,-201.5 312,-201.5 312,-189.5 312,-189.5 312,-183.5 318,-177.5 324,-177.5 324,-177.5 428,-177.5 428,-177.5 434,-177.5 440,-183.5 440,-189.5 440,-189.5 440,-201.5 440,-201.5 440,-207.5 434,-213.5 428,-213.5"/>
<text text-anchor="middle" x="376" y="-191.8" font-family="Times,serif" font-size="14.00">83: get_ignore_list()</text>
</g>
<!-- node_7489acdc&#45;&gt;node_d7ca6b80 -->
<g id="edge8" class="edge">
<title>node_7489acdc&#45;&gt;node_d7ca6b80</title>
<path fill="none" stroke="#cf142b" stroke-width="2" d="M176.57,-201.5C176.57,-201.5 301.89,-201.5 301.89,-201.5"/>
<polygon fill="#cf142b" stroke="#cf142b" stroke-width="2" points="301.89,-205 311.89,-201.5 301.89,-198 301.89,-205"/>
</g>
<!-- node_a1603c43 -->
<g id="node9" class="node">
<title>node_a1603c43</title>
<path fill="#cccccc" stroke="black" d="M422,-267.5C422,-267.5 330,-267.5 330,-267.5 324,-267.5 318,-261.5 318,-255.5 318,-255.5 318,-243.5 318,-243.5 318,-237.5 324,-231.5 330,-231.5 330,-231.5 422,-231.5 422,-231.5 428,-231.5 434,-237.5 434,-243.5 434,-243.5 434,-255.5 434,-255.5 434,-261.5 428,-267.5 422,-267.5"/>
<text text-anchor="middle" x="376" y="-245.8" font-family="Times,serif" font-size="14.00">241: process_dir()</text>
</g>
<!-- node_7489acdc&#45;&gt;node_a1603c43 -->
<g id="edge9" class="edge">
<title>node_7489acdc&#45;&gt;node_a1603c43</title>
<path fill="none" stroke="#cf142b" stroke-width="2" d="M134,-213.78C134,-229.45 134,-249.5 134,-249.5 134,-249.5 307.73,-249.5 307.73,-249.5"/>
<polygon fill="#cf142b" stroke="#cf142b" stroke-width="2" points="307.73,-253 317.73,-249.5 307.73,-246 307.73,-253"/>
</g>
<!-- node_a51414cf -->
<g id="node5" class="node">
<title>node_a51414cf</title>
<path fill="#6db33f" stroke="black" d="M630,-213.5C630,-213.5 506,-213.5 506,-213.5 500,-213.5 494,-207.5 494,-201.5 494,-201.5 494,-189.5 494,-189.5 494,-183.5 500,-177.5 506,-177.5 506,-177.5 630,-177.5 630,-177.5 636,-177.5 642,-183.5 642,-189.5 642,-189.5 642,-201.5 642,-201.5 642,-207.5 636,-213.5 630,-213.5"/>
<text text-anchor="middle" x="568" y="-191.8" font-family="Times,serif" font-size="14.00">91: add_to_ignore_list()</text>
</g>
<!-- node_72f73e39 -->
<g id="node6" class="node">
<title>node_72f73e39</title>
<path fill="#6db33f" stroke="black" d="M639,-267.5C639,-267.5 497,-267.5 497,-267.5 491,-267.5 485,-261.5 485,-255.5 485,-255.5 485,-243.5 485,-243.5 485,-237.5 491,-231.5 497,-231.5 497,-231.5 639,-231.5 639,-231.5 645,-231.5 651,-237.5 651,-243.5 651,-243.5 651,-255.5 651,-255.5 651,-261.5 645,-267.5 639,-267.5"/>
<text text-anchor="middle" x="568" y="-245.8" font-family="Times,serif" font-size="14.00">49: add_to_cached_dirlist()</text>
</g>
<!-- node_a1603c43&#45;&gt;node_a01fcd2a -->
<g id="edge4" class="edge">
<title>node_a1603c43&#45;&gt;node_a01fcd2a</title>
<path fill="none" stroke="#cf142b" stroke-width="2" d="M434.15,-249.5C451.98,-249.5 467,-249.5 467,-249.5 467,-249.5 467,-141.5 467,-141.5 467,-141.5 477.44,-141.5 477.44,-141.5"/>
<polygon fill="#cf142b" stroke="#cf142b" stroke-width="2" points="477.44,-145 487.44,-141.5 477.44,-138 477.44,-145"/>
</g>
<!-- node_a1603c43&#45;&gt;node_a51414cf -->
<g id="edge2" class="edge">
<title>node_a1603c43&#45;&gt;node_a51414cf</title>
<path fill="none" stroke="#cf142b" stroke-width="2" d="M434.22,-240.5C440.69,-240.5 445,-240.5 445,-240.5 445,-240.5 445,-195.5 445,-195.5 445,-195.5 483.97,-195.5 483.97,-195.5"/>
<polygon fill="#cf142b" stroke="#cf142b" stroke-width="2" points="483.97,-199 493.97,-195.5 483.97,-192 483.97,-199"/>
</g>
<!-- node_a1603c43&#45;&gt;node_72f73e39 -->
<g id="edge3" class="edge">
<title>node_a1603c43&#45;&gt;node_72f73e39</title>
<path fill="none" stroke="#cf142b" stroke-width="2" d="M434.13,-258.5C434.13,-258.5 474.93,-258.5 474.93,-258.5"/>
<polygon fill="#cf142b" stroke="#cf142b" stroke-width="2" points="474.93,-262 484.93,-258.5 474.93,-255 474.93,-262"/>
</g>
<!-- node_a1603c43&#45;&gt;node_c3a30672 -->
<g id="edge5" class="edge">
<title>node_a1603c43&#45;&gt;node_c3a30672</title>
<path fill="none" stroke="#cf142b" stroke-width="2" d="M376,-231.34C376,-226.46 376,-222.5 376,-222.5 376,-222.5 676.77,-222.5 676.77,-222.5"/>
<polygon fill="#cf142b" stroke="#cf142b" stroke-width="2" points="676.77,-226 686.77,-222.5 676.77,-219 676.77,-226"/>
</g>
<!-- node_a5ba7e59 -->
<g id="node10" class="node">
<title>node_a5ba7e59</title>
<path fill="#6db33f" stroke="black" d="M634.5,-341.5C634.5,-341.5 501.5,-341.5 501.5,-341.5 495.5,-341.5 489.5,-335.5 489.5,-329.5 489.5,-329.5 489.5,-317.5 489.5,-317.5 489.5,-311.5 495.5,-305.5 501.5,-305.5 501.5,-305.5 634.5,-305.5 634.5,-305.5 640.5,-305.5 646.5,-311.5 646.5,-317.5 646.5,-317.5 646.5,-329.5 646.5,-329.5 646.5,-335.5 640.5,-341.5 634.5,-341.5"/>
<text text-anchor="middle" x="568" y="-319.8" font-family="Times,serif" font-size="14.00">126: which_pipeline_db()</text>
</g>
<!-- node_a1603c43&#45;&gt;node_a5ba7e59 -->
<g id="edge6" class="edge">
<title>node_a1603c43&#45;&gt;node_a5ba7e59</title>
<path fill="none" stroke="#cf142b" stroke-width="2" d="M376,-267.79C376,-289.71 376,-323.5 376,-323.5 376,-323.5 479.35,-323.5 479.35,-323.5"/>
<polygon fill="#cf142b" stroke="#cf142b" stroke-width="2" points="479.35,-327 489.35,-323.5 479.35,-320 479.35,-327"/>
</g>
</g>
</svg>
