<?xml version="1.0" encoding="UTF-8" standalone="no"?>
<!DOCTYPE svg PUBLIC "-//W3C//DTD SVG 1.1//EN"
 "http://www.w3.org/Graphics/SVG/1.1/DTD/svg11.dtd">
<!-- Generated by graphviz version 2.50.0 (20211204.2007)
 -->
<!-- Title: G Pages: 1 -->
<svg width="467pt" height="209pt"
 viewBox="0.00 0.00 467.00 208.50" xmlns="http://www.w3.org/2000/svg" xmlns:xlink="http://www.w3.org/1999/xlink">
<g id="graph0" class="graph" transform="scale(1 1) rotate(0) translate(4 204.5)">
<title>G</title>
<polygon fill="white" stroke="transparent" points="-4,4 -4,-204.5 463,-204.5 463,4 -4,4"/>
<g id="clust2" class="cluster">
<title>cluster_546d118d</title>
<polygon fill="none" stroke="black" stroke-dasharray="1,5" points="95.5,-117.5 95.5,-192.5 451,-192.5 451,-117.5 95.5,-117.5"/>
<text text-anchor="middle" x="273.25" y="-177.3" font-family="Times,serif" font-size="14.00">File: oracle_buckets</text>
</g>
<!-- Legend -->
<g id="node1" class="node">
<title>Legend</title>
<polygon fill="none" stroke="black" points="1.5,-88.5 1.5,-105.5 266.5,-105.5 266.5,-88.5 1.5,-88.5"/>
<text text-anchor="start" x="82" y="-93.3" font-family="Times,serif" font-size="14.00">Code2flow Legend</text>
<polygon fill="none" stroke="black" points="1.5,-0.5 1.5,-88.5 266.5,-88.5 266.5,-0.5 1.5,-0.5"/>
<polygon fill="none" stroke="black" points="3.5,-65.5 3.5,-86.5 214.5,-86.5 214.5,-65.5 3.5,-65.5"/>
<text text-anchor="start" x="63" y="-72.3" font-family="Times,serif" font-size="14.00">Regular function</text>
<polygon fill="#cccccc" stroke="transparent" points="214.5,-65.5 214.5,-86.5 264.5,-86.5 264.5,-65.5 214.5,-65.5"/>
<polygon fill="none" stroke="black" points="214.5,-65.5 214.5,-86.5 264.5,-86.5 264.5,-65.5 214.5,-65.5"/>
<polygon fill="none" stroke="black" points="3.5,-44.5 3.5,-65.5 214.5,-65.5 214.5,-44.5 3.5,-44.5"/>
<text text-anchor="start" x="15" y="-51.3" font-family="Times,serif" font-size="14.00">Trunk function (nothing calls this)</text>
<polygon fill="#966f33" stroke="transparent" points="214.5,-44.5 214.5,-65.5 264.5,-65.5 264.5,-44.5 214.5,-44.5"/>
<polygon fill="none" stroke="black" points="214.5,-44.5 214.5,-65.5 264.5,-65.5 264.5,-44.5 214.5,-44.5"/>
<polygon fill="none" stroke="black" points="3.5,-23.5 3.5,-44.5 214.5,-44.5 214.5,-23.5 3.5,-23.5"/>
<text text-anchor="start" x="6.5" y="-30.3" font-family="Times,serif" font-size="14.00">Leaf function (this calls nothing else)</text>
<polygon fill="#6db33f" stroke="transparent" points="214.5,-23.5 214.5,-44.5 264.5,-44.5 264.5,-23.5 214.5,-23.5"/>
<polygon fill="none" stroke="black" points="214.5,-23.5 214.5,-44.5 264.5,-44.5 264.5,-23.5 214.5,-23.5"/>
<polygon fill="none" stroke="black" points="3.5,-2.5 3.5,-23.5 214.5,-23.5 214.5,-2.5 3.5,-2.5"/>
<text text-anchor="start" x="73" y="-9.3" font-family="Times,serif" font-size="14.00">Function call</text>
<polygon fill="none" stroke="black" points="214.5,-2.5 214.5,-23.5 264.5,-23.5 264.5,-2.5 214.5,-2.5"/>
<text text-anchor="start" x="232.5" y="-9.3" font-family="Times,serif" font-size="14.00" fill="#cf142b">→</text>
<polygon fill="none" stroke="black" points="2.5,-1.5 2.5,-87.5 265.5,-87.5 265.5,-1.5 2.5,-1.5"/>
<polygon fill="none" stroke="black" points="0,0 0,-107 267,-107 267,0 0,0"/>
</g>
<!-- node_ee41f3a1 -->
<g id="node2" class="node">
<title>node_ee41f3a1</title>
<path fill="#966f33" stroke="black" d="M151.5,-161.5C151.5,-161.5 115.5,-161.5 115.5,-161.5 109.5,-161.5 103.5,-155.5 103.5,-149.5 103.5,-149.5 103.5,-137.5 103.5,-137.5 103.5,-131.5 109.5,-125.5 115.5,-125.5 115.5,-125.5 151.5,-125.5 151.5,-125.5 157.5,-125.5 163.5,-131.5 163.5,-137.5 163.5,-137.5 163.5,-149.5 163.5,-149.5 163.5,-155.5 157.5,-161.5 151.5,-161.5"/>
<text text-anchor="middle" x="133.5" y="-139.8" font-family="Times,serif" font-size="14.00">21: go()</text>
</g>
<!-- node_a267565a -->
<g id="node3" class="node">
<title>node_a267565a</title>
<path fill="#6db33f" stroke="black" d="M431,-161.5C431,-161.5 315,-161.5 315,-161.5 309,-161.5 303,-155.5 303,-149.5 303,-149.5 303,-137.5 303,-137.5 303,-131.5 309,-125.5 315,-125.5 315,-125.5 431,-125.5 431,-125.5 437,-125.5 443,-131.5 443,-137.5 443,-137.5 443,-149.5 443,-149.5 443,-155.5 437,-161.5 431,-161.5"/>
<text text-anchor="middle" x="373" y="-139.8" font-family="Times,serif" font-size="14.00">16: is_path_mounted()</text>
</g>
<!-- node_ee41f3a1&#45;&gt;node_a267565a -->
<g id="edge1" class="edge">
<title>node_ee41f3a1&#45;&gt;node_a267565a</title>
<path fill="none" stroke="#cf142b" stroke-width="2" d="M163.83,-143.5C163.83,-143.5 292.79,-143.5 292.79,-143.5"/>
<polygon fill="#cf142b" stroke="#cf142b" stroke-width="2" points="292.79,-147 302.79,-143.5 292.79,-140 292.79,-147"/>
</g>
</g>
</svg>
